<svg width="113" height="98" viewBox="0 0 113 98" fill="none" xmlns="http://www.w3.org/2000/svg">
<path d="M23 5.5C32.2 1.5 45.5 0.5 51 0.5C55 0.5 64.5 0.8 70.5 2C74.8333 3.16667 84.6 6.7 89 11.5L93 5.5C96.1667 6.83333 102.6 11.8 107 17L103.5 23C105 26 108 34.7 108 45.5C108 53 104 62.5 101 65C98.6 67 86.3333 71.8333 80.5 74C80.5 81 77 88.5 72.5 92.5C68.9 95.7 59.6667 95.8333 55.5 95.5C64.5 93.5 62 76.5 60.5 76.5C59 76.5 43 78 32.5 76.5C22 75 17.5 73.5 9.5 67C1.5 60.5 2.99999 53 0.499988 38C-2.00001 23 11.5 10.5 23 5.5Z" fill="#FFE588"/>
<path d="M92 11.5C85.2 6.3 76.8333 4 73.5 3.5C61 2.5 49 2 44 3.5C39 5 24.5 7 18 12.5C11.5 18 7.50001 22.5 5.50001 32.5C3.50001 42.5 5.00001 58.5 11.5 65.5C18 72.5 27.5 80 47.5 78.5C63.5 77.3 65.1667 76.3333 64 76C65.5 79 67.3 87.3 62.5 96.5C68.5 97.1667 81.4 93.5 85 73.5C87.1667 73.8333 93.1 73.6 99.5 70C102.333 68.5 108.6 62.5 111 50.5C113.4 38.5 108.667 27.8333 106 24" stroke="black"/>
<path d="M28.6163 50C26.8245 52.4 29.3629 52.5 30.8561 52.25C31.3538 52.25 32.4986 52.1 33.0959 51.5C33.8425 50.75 32.3493 50 31.6027 49.25C30.8561 48.5 30.8561 47 28.6163 50Z" stroke="black"/>
<path d="M42.8017 51.5C42.8017 52.1 44.2948 52.75 45.0414 53C48.0278 53 47.2812 50 47.2812 48.5C47.2812 47 43.5483 47.75 42.8017 48.5C42.0551 49.25 42.8017 50.75 42.8017 51.5Z" stroke="black"/>
<path d="M55.4938 51.5C56.0911 52.7 57.7336 53 58.4802 53C60.72 53 61.4666 50 60.72 48.5C59.9734 47 59.9734 47 58.4802 47C56.987 47 56.2404 47.75 55.4938 47.75C54.7472 47.75 54.7472 50 55.4938 51.5Z" stroke="black"/>
<path d="M68.5 55C68.5 56.6 68.8333 57.6667 69 58C69 58.3333 69.2 59 70 59C71 59 75 57 80 55C85 53 84 52 84.5 51.5C85 51 94.5 35.5 100 27.5C105.5 19.5 106.5 18 106.5 17C106.5 16 104.5 15 100.5 11C97.3 7.8 94.1667 6.33333 93 6L89.5 12C89.1667 12.8333 88.2 15 87 17C85.5 19.5 71 39.5 70 41C69 42.5 69.5 43.5 69.5 45C69.5 46.5 68.5 53 68.5 55Z" fill="white"/>
<path d="M71 45C71 46.2 70.6667 49.1667 70.5 50.5C70.1667 52.1667 69.6 55.7 70 56.5C70.5 57.5 70 58 71 58C72 58 71.5 58.5 73 58C74.5 57.5 77.5 57 79.5 56.5C81.5 56 85.3534 54.5 86 53.5C93.9558 41.2047 102.399 29.5415 110 17L108 14.5C107.167 13.5 105.2 11.2 104 10C102.8 8.8 98.5 7.16667 96.5 6.5C95 8.16667 91.9 11.8 91.5 13C91 14.5 87 20 86 21.5C81.3238 28.5143 76.251 35.7125 72 43C71.6667 43.1667 71 43.8 71 45Z" stroke="black"/>
</svg>
