<svg width="80" height="56" viewBox="0 0 80 56" fill="none" xmlns="http://www.w3.org/2000/svg">
<path d="M75.9728 6.79433C75.9728 2.97896 73.4778 2.75884 72.2303 3.1257H8.60776C0 3.1257 0 6.79433 0 9.36237V51.1848C0 55.5871 2.2455 56.1986 3.36825 55.954H70.3591C76.7214 55.954 75.9728 53.386 75.9728 50.451V6.79433Z" fill="#BCFFE3"/>
<path d="M79 17.4365V3.14088C79 1.64917 77.9134 1.27625 77.3701 1.27625C73.7844 0.654697 38.2531 1.27624 29.7778 1.27624C21.3024 1.27624 10.8712 1.27624 6.63352 1.27624C3.24338 1.27624 2.83048 3.55524 3.0478 4.69475V48.5138C2.93914 49.3425 3.30858 51 5.6556 51C8.58937 51 20.9764 51 24.8881 51C28.7998 51 40.8609 51 46.4025 50.3785" stroke="black"/>
<path d="M8.40132 13C8.40132 13 16.7175 13 22.0461 13M25.6579 13H30.875M34.4868 13H45.3224M11.2105 21.3721H13.6184M16.8289 21.3721H36.8947M40.1053 21.3721H60.1711M63.7829 21.3721H69M14.0197 29.186H22.0461M25.6579 29.186H28.4671M31.6776 29.186H33.6842M8 37H16.8289M19.6382 37H33.6842M37.2961 37H40.1053" stroke="#2FEE9E" stroke-width="4" stroke-linecap="round" stroke-linejoin="round"/>
<path d="M8.40132 13C8.40132 13 16.7175 13 22.0461 13M25.6579 13H30.875M34.4868 13H45.3224M11.2105 21.3721H13.6184M16.8289 21.3721H36.8947M40.1053 21.3721H60.1711M63.7829 21.3721H69M14.0197 29.186H22.0461M25.6579 29.186H28.4671M31.6776 29.186H33.6842M8 37H16.8289M19.6382 37H33.6842M37.2961 37H40.1053" stroke="black" stroke-width="2"/>
</svg>
