<svg width="121" height="115" viewBox="0 0 121 115" fill="none" xmlns="http://www.w3.org/2000/svg">
<path d="M88.7472 109.041C83.9376 111.709 77.7251 114.397 75.2201 114.802C74.8193 115.105 73.7772 115.287 72.8153 113.589C71.6129 111.467 72.8153 105.909 72.8153 97.8236C72.8153 91.2569 70.8113 83.7762 69.5087 82.3614C71.9135 82.3614 73.7171 86.4846 82.134 82.3614C92.6551 77.2073 92.9557 73.5692 95.0599 60.8356C96.7433 50.6488 91.9537 43.6555 89.3485 41.4321C89.6491 40.6237 90.2503 38.8854 90.2503 38.4003C90.2503 37.794 90.8515 35.9749 90.8515 34.459C90.8515 32.9431 91.1521 31.4272 88.146 25.0604C81.8935 24.8179 75.3203 29.406 72.8153 31.7304C72.8153 31.8314 72.154 31.7304 69.5087 30.5177C66.202 29.0018 62.826 27.9914 56.5134 27.6882C50.2007 27.3851 51.4725 27.3851 43.3562 29.5073C37.3441 23.4437 31.0315 25.3636 26.823 25.3636C24.1777 31.4272 25.7208 38.6025 26.823 41.4321C25.32 41.4321 22.0134 46.4854 20.5104 50.7299C19.0073 54.9744 19.6085 58.7134 22.0134 67.5056C24.4182 76.2978 28.326 78.4201 34.3381 82.3614C39.1477 85.5145 40.8512 86.8083 43.3562 86.5051C41.8532 87.3136 43.3562 88.7888 43.3562 92.6695C34.6387 94.4886 29.829 90.8504 28.326 89.0313C26.823 87.2123 26.5224 83.5741 20.5104 82.3614C14.4983 81.1487 16.0013 83.2709 17.2037 84.7868C18.4061 86.3027 18.4061 85.3932 22.0134 89.0313C25.6206 92.6695 23.817 98.1267 32.2339 101.159C38.9674 103.584 43.256 101.361 44.5586 99.9458V107.828C44.5586 111.77 44.5586 114.802 43.3562 114.802C42.1538 114.802 33.4363 116.621 20.5104 103.887C7.58443 91.1536 -2.03487 76.9042 0.369953 56.5911C2.77478 36.2781 7.21447 19.8056 30.9621 6.46567C54.7098 -6.87423 75.5207 3.83786 85.4406 8.38556C95.3605 12.9333 115.131 29.2041 116.634 50.7299C118.137 72.2557 114.83 76.197 110.021 86.5051C105.211 96.8132 94.7593 105.706 88.7472 109.041Z" fill="#CBEFFF"/>
<path d="M93.0233 108.13C88.2529 110.758 82.0911 113.406 79.6065 113.805C79.209 114.103 78.1754 114.282 77.2213 112.61C76.0287 110.519 76.625 105.143 77.2213 97.0787C77.6983 90.6272 75.2336 86.2267 73.9416 84.8329C76.3269 84.8329 78.1158 85.9081 86.464 81.8461C96.8993 76.7686 97.1974 73.1845 99.2845 60.64C100.954 50.6045 96.2036 43.715 93.6196 41.5247C93.9178 40.7282 94.5141 39.0158 94.5141 38.5379C94.5141 37.9406 95.1104 36.1485 95.1104 34.6551C95.1104 33.1617 95.4085 31.6683 92.427 25.3961C86.2255 25.1572 79.7059 29.6772 77.2213 31.967C77.2213 32.0666 76.5654 31.967 73.9416 30.7723C70.662 29.2789 67.6805 29.8763 61.4193 29.5776C55.1581 29.2789 56.0526 30.175 48.0025 32.2657C42.0395 26.2922 35.7783 25.6948 31.6042 25.6948C28.9805 31.6683 30.511 38.737 31.6042 41.5247C30.1135 41.5247 28.3246 45.4075 26.8338 49.589C25.343 53.7705 24.4486 58.5493 26.8338 67.2109C29.219 75.8726 33.095 77.9633 39.058 81.8461C43.8284 84.9524 49.9902 85.1316 52.4748 84.8329C50.984 85.6293 48.0025 88.1781 48.0025 92.0011C39.3561 93.7932 34.5857 90.2091 33.095 88.417C31.6042 86.625 31.3061 83.0408 25.343 81.8461C19.38 80.6514 20.8708 82.7421 22.0634 84.2355C23.256 85.7289 23.256 84.8329 26.8338 88.417C30.4116 92.0011 28.6227 97.3773 36.9709 100.364C43.6495 102.754 47.9031 100.563 49.1951 99.1694V106.935C49.1951 110.818 49.1951 113.805 48.0025 113.805C46.8099 113.805 38.1635 115.597 25.343 103.052C12.5226 90.5078 2.98173 76.4699 5.36693 56.4586C7.75214 36.4472 13.1189 22.1107 36.6728 8.96889C60.2267 -4.17291 79.9047 4.48873 89.7436 8.96889C99.5826 13.449 118.068 30.175 119.559 51.381C121.049 72.5871 118.664 74.6779 113.894 84.8329C109.123 94.9879 98.9863 104.844 93.0233 108.13Z" stroke="black"/>
</svg>
