<svg width="75" height="116" viewBox="0 0 75 116" fill="none" xmlns="http://www.w3.org/2000/svg">
<path d="M67.4828 86.4977C67.2843 91.084 68.7231 102.035 69.4674 106.937C70.5724 115.162 64.2579 116.408 54.5831 115.162C46.8434 114.165 45.9007 111.423 46.3968 110.177C46.3968 109.097 46.6449 105.989 47.6372 102.201C48.8775 97.4649 47.141 85.0021 46.3968 82.0111C45.6526 79.02 42.9239 78.5215 38.4586 74.2841C33.9933 70.0468 28.7839 63.5661 27.0474 62.0706C25.3109 60.5751 16.3803 54.3437 10.6747 53.3467C4.96912 52.3496 0.25579 48.1123 0.25579 44.6227C0.25579 41.1331 4.72106 43.6257 11.667 47.1153C18.613 50.6048 25.3109 51.6019 28.7839 52.3496C30.0207 52.6159 30.7684 52.1004 30.7684 50.1063C30.7684 48.1123 25.0628 43.8749 21.5898 40.1361C18.1168 36.3973 15.6361 33.9047 11.667 29.6674C7.6979 25.43 4.96913 23.436 4.72106 20.1957C4.47299 16.9553 8.44211 20.1957 11.667 20.1957C14.8919 20.1957 18.8611 27.4241 21.5898 31.1629C24.3186 34.9017 32.2568 42.1302 33.7453 40.1361C35.2337 38.1421 31.7607 35.8988 28.7839 32.4092C25.807 28.9196 22.5821 23.436 21.5898 20.1957C20.5975 16.9553 14.1477 13.2165 14.1477 9.47767C14.1477 5.73883 16.1323 7.23437 18.8611 7.48362C21.5898 7.73288 29.0319 20.6942 33.7453 27.4241C38.4586 34.154 40.4432 35.151 44.1642 35.8988C47.8853 36.6465 42.9239 32.9077 40.4432 27.4241C37.9625 21.1927 36.7221 17.9524 36.7221 10.7239C36.7221 3.49553 34.2414 4.74181 36.7221 1.00298C39.2028 -2.73586 40.9393 5.98809 42.9239 9.47767C44.9084 12.9672 46.3968 18.9494 49.3737 27.4241C52.3505 35.8988 55.5754 40.8839 59.5446 42.1302C63.5137 43.3764 63.0175 41.1331 63.0175 38.8898V27.4241C63.0175 20.9434 65.7463 24.1838 67.4828 27.4241C69.2193 30.6644 69.4674 35.6495 69.4674 38.8898C69.4674 42.1302 70.9558 49.8571 71.4519 54.3437C71.9481 58.8303 67.4828 67.0557 67.4828 70.5453C67.4828 74.0349 67.7309 80.7648 67.4828 86.4977Z" fill="#FF8080" fill-opacity="1"/>
<path d="M63.7464 42.9413C63.0022 43.5229 61.3153 44.9852 60.5215 46.1816M57.0485 41.9443C58.2889 41.9443 61.1665 42.1437 62.7541 42.9413M44.8931 21.0068L47.8699 20.259M59.5292 78.0863L58.0408 79.3326M27.5282 57.3981C27.5282 57.0658 27.6274 56.2017 28.0243 55.4041M12.1478 47.6772C12.3959 47.0956 12.7432 45.733 12.1478 44.9353" stroke="black" stroke-width="0.75"/>
<path d="M48.118 107C48.5315 103.594 49.3087 96.2322 49.1103 94.0387C48.8622 91.2969 48.6142 87.8073 48.118 84.3177L47.3738 80.0804M55.312 81.5759C54.8159 82.0744 53.1786 82.7724 50.5987 81.5759C47.3738 80.0804 47.6219 79.5819 44.397 76.8401C41.172 74.0983 39.1875 72.6027 38.1952 70.6087C37.2029 68.6146 37.6991 69.8609 35.2184 67.3684C33.2338 65.3743 32.7377 64.2111 32.7377 63.8788M32.7377 63.8788C32.9857 63.131 33.8292 61.5856 35.2184 61.3862C36.9549 61.137 36.4587 58.8937 38.1952 57.6474C39.9317 56.4011 43.1566 54.1578 43.1566 53.1608C43.1566 52.3632 43.9835 50.5021 44.397 49.6712M32.7377 63.8788C32.2415 63.6295 30.9516 62.7821 29.7608 61.3862C28.2724 59.6414 28.2724 59.1429 23.8071 56.6504C19.3419 54.1578 18.3496 55.1548 17.1092 54.1578C15.8689 53.1608 12.644 51.416 10.9075 50.9175C9.171 50.419 8.42679 49.4219 6.44223 48.9234C4.45767 48.4249 3.46539 47.1786 2.22504 46.6801C0.984687 46.1816 0.240477 43.6891 2.22504 42.9413C4.2096 42.1935 6.44223 41.9443 8.67486 42.9413C10.9075 43.9383 12.1478 44.6861 12.644 45.1846C13.1401 45.6831 16.117 45.9324 19.0938 47.4279C22.0706 48.9234 24.5514 49.6712 26.5359 49.6712C28.5205 49.6712 29.7608 50.6682 30.257 49.4219C30.7531 48.1757 31.4973 48.4249 28.5205 45.6831C25.5436 42.9413 22.8149 39.701 21.5745 38.9532C20.3342 38.2054 19.5899 36.7099 17.1092 33.9681C14.6285 31.2263 12.3959 26.7397 9.41907 24.7456C6.44223 22.7516 5.20188 21.2561 5.44995 19.0128C5.69802 16.7695 7.93065 16.7695 9.41907 17.268C10.9075 17.7665 15.1247 21.5053 17.1092 23.7486C19.0938 25.9919 24.5514 29.4815 25.5436 30.977C26.5359 32.4726 28.5205 34.7159 30.257 36.2114C31.9935 37.7069 33.2338 39.701 34.2261 39.701C35.2184 39.701 35.7145 39.2025 33.2338 35.7129C30.7531 32.2233 27.5282 29.2322 26.5359 27.7367C25.5436 26.2412 24.7994 23.0009 22.5668 20.5083C20.3342 18.0157 18.1015 14.0276 17.1092 12.5321C16.117 11.0366 14.3805 8.54402 16.117 7.29774C17.8535 6.05147 18.3496 4.05742 24.3033 11.0366C30.257 18.0157 29.7608 17.5172 31.2492 19.0128C32.7377 20.5083 35.2184 23.2501 36.2106 25.4934C37.2029 27.7367 41.9163 33.9681 43.1566 33.9681C44.397 33.9681 45.6373 32.2233 44.397 29.2322C43.1566 26.2412 40.6759 22.0038 40.6759 20.5083C40.6759 19.0128 39.6836 14.7754 38.9394 12.5321C38.1952 10.2888 37.6991 9.29179 36.9549 7.29774C36.2106 5.3037 35.7145 2.31263 38.1952 2.06337C40.6759 1.81412 41.9163 2.06338 44.397 7.29774C46.8777 12.5321 46.3815 12.7814 47.6219 15.0247C48.8622 17.268 49.8545 20.259 50.3506 22.5023C50.8468 24.7456 53.8236 29.98 54.0717 30.977C54.3198 31.9741 58.537 36.4607 59.7773 38.9532C61.0177 41.4458 62.5061 43.6891 63.7464 42.9413C64.9868 42.1935 65.2348 38.4547 64.4906 36.2114C63.7464 33.9681 63.2503 33.9681 63.2503 29.4815C63.0022 26.2412 63.2999 19.611 66.4752 19.0128C67.4675 18.4312 69.452 18.1653 69.452 21.7546C69.452 26.2412 70.4443 26.7397 70.9405 28.4845C71.4366 30.2293 72.677 31.4755 72.4289 34.7159C72.1808 37.9562 73.1731 39.4517 73.6692 41.1965C74.1654 42.9413 73.6692 45.6831 73.6692 47.4279C73.6692 49.1727 74.4134 59.6414 73.6692 63.8788C72.925 68.1161 71.9328 69.8609 71.6847 72.6027C71.4366 75.3445 72.4289 77.3386 72.4289 81.5759C72.4289 85.8133 72.4289 87.0596 72.4289 90.5491C72.4289 94.0387 73.4212 102.015 73.6692 107" stroke="black" stroke-width="0.75"/>
</svg>
