<?xml version="1.0" encoding="utf-8"?>
<!-- Generator: Adobe Illustrator 16.0.0, SVG Export Plug-In . SVG Version: 6.00 Build 0)  -->
<!DOCTYPE svg PUBLIC "-//W3C//DTD SVG 1.1//EN" "http://www.w3.org/Graphics/SVG/1.1/DTD/svg11.dtd">
<svg version="1.1" xmlns="http://www.w3.org/2000/svg" xmlns:xlink="http://www.w3.org/1999/xlink" x="0px" y="0px"
	 width="698.872px" height="464.977px" viewBox="0 0 698.872 464.977" enable-background="new 0 0 698.872 464.977"
	 xml:space="preserve">
<g id="Layer_2">
	<polygon fill="#FFFFFF" points="660.214,186.693 636.229,166.507 636.214,186.675 	"/>
	<polygon fill="#FFFFFF" points="636.195,210.843 660.132,186.693 636.214,186.675 	"/>
	<polygon fill="#FEFBFD" points="615.465,186.66 636.195,210.843 636.214,186.675 	"/>
	<polygon fill="#FEFBFD" points="636.229,166.507 615.548,186.66 636.214,186.675 	"/>
	<polygon fill="#FEFBFD" points="592.196,210.81 615.707,186.66 592.214,186.642 	"/>
	<polygon fill="#FBECF4" points="571.509,176.561 548.229,155.375 548.213,176.543 	"/>
	<polygon fill="#F7D6E7" points="548.196,199.711 571.426,176.56 548.213,176.543 	"/>
	<polygon fill="#FBECF4" points="526.759,176.527 548.196,199.711 548.213,176.543 	"/>
	<polygon fill="#FEF8FB" points="637.229,155.441 615.693,176.593 637.213,176.609 	"/>
	<polygon fill="#FBECF4" points="393.802,176.427 371.229,155.243 371.213,176.411 	"/>
	<polygon fill="#F4C5DE" points="371.196,199.579 393.72,176.427 371.213,176.411 	"/>
	<polygon fill="#F7D6E7" points="349.052,176.394 371.196,199.579 371.213,176.411 	"/>
	<polygon fill="#F7D6E7" points="371.229,155.243 349.136,176.395 371.213,176.411 	"/>
	<polygon fill="#FBECF4" points="615.934,176.593 593.229,155.408 593.214,176.577 	"/>
	<polygon fill="#FBECF4" points="593.196,199.745 615.853,176.594 593.214,176.577 	"/>
	<polygon fill="#FBECF4" points="571.185,176.56 593.196,199.745 593.214,176.577 	"/>
	<polygon fill="#FEF8FB" points="593.229,155.408 571.269,176.561 593.214,176.577 	"/>
	<polygon fill="#FBECF4" points="438.229,176.461 415.229,155.276 415.213,176.444 	"/>
	<polygon fill="#F7D6E7" points="415.196,199.611 438.147,176.461 415.213,176.444 	"/>
	<polygon fill="#F4C5DE" points="393.479,176.427 415.196,199.611 415.213,176.444 	"/>
	<polygon fill="#FBECF4" points="415.229,155.276 393.562,176.427 415.213,176.444 	"/>
	<polygon fill="#FBECF4" points="304.948,176.361 282.229,155.176 282.213,176.344 	"/>
	<polygon fill="#F7D6E7" points="282.196,199.512 304.866,176.361 282.213,176.344 	"/>
	<polygon fill="#EFABCF" points="260.198,176.328 282.196,199.512 282.213,176.344 	"/>
	<polygon fill="#F7D6E7" points="282.229,155.176 260.282,176.328 282.213,176.344 	"/>
	<polygon fill="#FBECF4" points="527.08,176.527 504.229,155.342 504.214,176.51 	"/>
	<polygon fill="#FBECF4" points="504.195,199.678 526.999,176.527 504.214,176.51 	"/>
	<polygon fill="#FBECF4" points="482.33,176.494 504.195,199.678 504.214,176.51 	"/>
	<polygon fill="#FBECF4" points="504.229,155.342 482.415,176.494 504.214,176.51 	"/>
	<polygon fill="#F7D6E7" points="349.376,176.395 326.229,155.209 326.213,176.377 	"/>
	<polygon fill="#FBECF4" points="326.196,199.545 349.294,176.395 326.213,176.377 	"/>
	<polygon fill="#F7D6E7" points="304.625,176.361 326.196,199.545 326.213,176.377 	"/>
	<polygon fill="#F7D6E7" points="326.229,155.209 304.708,176.361 326.213,176.377 	"/>
	<polygon fill="#EFABCF" points="193.196,199.446 216.014,176.295 193.213,176.278 	"/>
	<polygon fill="#F4C5DE" points="127.243,176.229 104.229,155.043 104.214,176.211 	"/>
	<polygon fill="#F6D0B7" points="104.196,199.379 127.161,176.229 104.214,176.211 	"/>
	<polygon fill="#EFAAC1" points="104.229,155.043 82.575,176.195 104.214,176.211 	"/>
	<polygon fill="#FBECF4" points="482.655,176.494 459.229,155.308 459.213,176.476 	"/>
	<polygon fill="#FBECF4" points="459.196,199.645 482.572,176.494 459.213,176.476 	"/>
	<polygon fill="#F7D6E7" points="437.905,176.46 459.196,199.645 459.213,176.476 	"/>
	<polygon fill="#F7D6E7" points="459.229,155.308 437.989,176.46 459.213,176.476 	"/>
	<polygon fill="#F7D6E7" points="260.522,176.328 237.229,155.143 237.213,176.311 	"/>
	<polygon fill="#F7D6E7" points="237.196,199.478 260.44,176.328 237.213,176.311 	"/>
	<polygon fill="#EFABCF" points="215.772,176.294 237.196,199.478 237.213,176.311 	"/>
	<polygon fill="#F4C5DE" points="237.229,155.143 215.854,176.295 237.213,176.311 	"/>
	<polygon fill="#EFAAC1" points="148.196,199.412 171.586,176.261 148.213,176.244 	"/>
	<polygon fill="#EFAAC1" points="126.918,176.228 148.196,199.412 148.213,176.244 	"/>
	<polygon fill="#F6D0B7" points="60.196,199.346 82.733,176.195 60.213,176.179 	"/>
	<polygon fill="#F6D0B7" points="38.065,176.162 60.196,199.346 60.213,176.179 	"/>
	<polygon fill="#FFFFFF" points="614.212,188.827 638.148,164.677 614.229,164.659 	"/>
	<polygon fill="#FEFBFD" points="660.245,133.458 638.136,154.61 660.229,154.626 	"/>
	<polygon fill="#FEF8FB" points="549.524,154.544 526.246,133.359 526.229,154.526 	"/>
	<polygon fill="#FBECF4" points="526.212,177.694 549.443,154.544 526.229,154.526 	"/>
	<polygon fill="#FBECF4" points="504.775,154.511 526.212,177.694 526.229,154.526 	"/>
	<polygon fill="#FEF8FB" points="526.246,133.359 504.856,154.511 526.229,154.526 	"/>
	<polygon fill="#FEFBFD" points="638.376,154.611 615.245,133.425 615.23,154.593 	"/>
	<polygon fill="#FEFBFD" points="615.212,177.761 638.294,154.61 615.23,154.593 	"/>
	<polygon fill="#FEF8FB" points="593.626,154.577 615.212,177.761 615.23,154.593 	"/>
	<polygon fill="#FEFBFD" points="615.245,133.425 593.71,154.577 615.23,154.593 	"/>
	<polygon fill="#FBECF4" points="371.818,154.411 349.246,133.227 349.229,154.395 	"/>
	<polygon fill="#F7D6E7" points="349.212,177.562 371.737,154.411 349.229,154.395 	"/>
	<polygon fill="#F7D6E7" points="327.067,154.378 349.212,177.562 349.229,154.395 	"/>
	<polygon fill="#FBECF4" points="349.246,133.227 327.152,154.378 349.229,154.395 	"/>
	<polygon fill="#FEF8FB" points="571.213,177.729 593.868,154.577 571.229,154.56 	"/>
	<polygon fill="#FBECF4" points="416.245,154.444 393.245,133.259 393.229,154.427 	"/>
	<polygon fill="#FBECF4" points="393.212,177.595 416.163,154.444 393.229,154.427 	"/>
	<polygon fill="#FBECF4" points="371.496,154.411 393.212,177.595 393.229,154.427 	"/>
	<polygon fill="#FBECF4" points="393.245,133.259 371.578,154.411 393.229,154.427 	"/>
	<polygon fill="#FBECF4" points="282.964,154.345 260.246,133.16 260.229,154.328 	"/>
	<polygon fill="#FBECF4" points="260.212,177.496 282.882,154.345 260.229,154.328 	"/>
	<polygon fill="#FBECF4" points="260.246,133.16 238.298,154.312 260.229,154.328 	"/>
	<polygon fill="#FEF8FB" points="505.097,154.511 482.245,133.325 482.229,154.493 	"/>
	<polygon fill="#FBECF4" points="482.213,177.662 505.016,154.511 482.229,154.493 	"/>
	<polygon fill="#FBECF4" points="460.348,154.477 482.213,177.662 482.229,154.493 	"/>
	<polygon fill="#FEF8FB" points="482.245,133.325 460.432,154.478 482.229,154.493 	"/>
	<polygon fill="#FBECF4" points="327.392,154.378 304.246,133.193 304.23,154.36 	"/>
	<polygon fill="#FBECF4" points="304.212,177.528 327.31,154.378 304.23,154.36 	"/>
	<polygon fill="#F7D6E7" points="282.642,154.345 304.212,177.528 304.23,154.36 	"/>
	<polygon fill="#FBECF4" points="304.246,133.193 282.724,154.345 304.23,154.36 	"/>
	<polygon fill="#F1B6D6" points="105.259,154.212 82.246,133.026 82.23,154.194 	"/>
	<polygon fill="#F6D0B7" points="82.212,177.363 105.177,154.212 82.23,154.194 	"/>
	<polygon fill="#F6D0B7" points="60.509,154.179 82.212,177.363 82.23,154.194 	"/>
	<polygon fill="#F6D0B7" points="82.246,133.026 60.592,154.179 82.23,154.194 	"/>
	<polygon fill="#FEF8FB" points="460.672,154.478 437.245,133.292 437.229,154.46 	"/>
	<polygon fill="#FEF8FB" points="437.212,177.628 460.591,154.478 437.229,154.46 	"/>
	<polygon fill="#FBECF4" points="415.922,154.444 437.212,177.628 437.229,154.46 	"/>
	<polygon fill="#FEF8FB" points="437.245,133.292 416.005,154.444 437.229,154.46 	"/>
	<polygon fill="#F4C5DE" points="126.246,133.06 105.019,154.211 126.23,154.228 	"/>
	<polygon fill="#F1B6D6" points="60.831,154.179 38.246,132.995 38.229,154.162 	"/>
	<polygon fill="#F6D0B7" points="16.082,154.146 38.213,177.33 38.229,154.162 	"/>
	<polygon fill="#FEFBFD" points="660.181,231.693 637.196,210.508 637.181,231.675 	"/>
	<polygon fill="#FEFBFD" points="637.196,210.508 615.514,231.66 637.181,231.675 	"/>
	<polygon fill="#FEF8FB" points="615.755,231.66 593.196,210.475 593.181,231.643 	"/>
	<polygon fill="#FEF8FB" points="593.163,254.811 615.673,231.659 593.181,231.643 	"/>
	<polygon fill="#FBECF4" points="660.005,220.626 682.163,243.811 682.181,220.643 	"/>
	<polygon fill="#FEF8FB" points="682.196,199.475 660.087,220.626 682.181,220.643 	"/>
	<polygon fill="#FBECF4" points="571.476,220.56 548.196,199.375 548.181,220.543 	"/>
	<polygon fill="#F7D6E7" points="548.163,243.711 571.394,220.561 548.181,220.543 	"/>
	<polygon fill="#F4C5DE" points="526.726,220.526 548.163,243.711 548.181,220.543 	"/>
	<polygon fill="#F7D6E7" points="548.196,199.375 526.808,220.527 548.181,220.543 	"/>
	<polygon fill="#FBECF4" points="637.163,243.777 660.245,220.626 637.18,220.609 	"/>
	<polygon fill="#F7D6E7" points="393.77,220.428 371.196,199.243 371.181,220.411 	"/>
	<polygon fill="#EFABCF" points="371.163,243.578 393.688,220.428 371.181,220.411 	"/>
	<polygon fill="#EFABCF" points="349.02,220.394 371.163,243.578 371.181,220.411 	"/>
	<polygon fill="#F1B6D6" points="371.196,199.243 349.104,220.394 371.181,220.411 	"/>
	<polygon fill="#FBECF4" points="593.196,199.409 571.235,220.56 593.181,220.576 	"/>
	<polygon fill="#F7D6E7" points="438.196,220.46 415.196,199.275 415.181,220.443 	"/>
	<polygon fill="#F1B6D6" points="415.163,243.611 438.114,220.46 415.181,220.443 	"/>
	<polygon fill="#F1B6D6" points="393.446,220.427 415.163,243.611 415.181,220.443 	"/>
	<polygon fill="#F1B6D6" points="415.196,199.275 393.529,220.427 415.181,220.443 	"/>
	<polygon fill="#ED9CC7" points="304.915,220.361 282.196,199.177 282.181,220.344 	"/>
	<polygon fill="#EFAAC1" points="282.164,243.512 304.833,220.361 282.181,220.344 	"/>
	<polygon fill="#EFAAC1" points="260.165,220.328 282.164,243.512 282.181,220.344 	"/>
	<polygon fill="#ED9CC7" points="282.196,199.177 260.249,220.328 282.181,220.344 	"/>
	<polygon fill="#F4C5DE" points="527.048,220.527 504.196,199.342 504.181,220.51 	"/>
	<polygon fill="#F1B6D6" points="504.164,243.678 526.966,220.526 504.181,220.51 	"/>
	<polygon fill="#F1B6D6" points="482.298,220.493 504.164,243.678 504.181,220.51 	"/>
	<polygon fill="#FBECF4" points="504.196,199.342 482.382,220.494 504.181,220.51 	"/>
	<polygon fill="#EFABCF" points="349.344,220.395 326.196,199.209 326.181,220.377 	"/>
	<polygon fill="#ED9CC7" points="326.163,243.545 349.262,220.395 326.181,220.377 	"/>
	<polygon fill="#ED9CC7" points="304.592,220.361 326.163,243.545 326.181,220.377 	"/>
	<polygon fill="#EFABCF" points="326.196,199.209 304.675,220.361 326.181,220.377 	"/>
	<polygon fill="#F2B6BD" points="216.063,220.295 193.196,199.11 193.18,220.278 	"/>
	<polygon fill="#F2B6BD" points="193.164,243.445 215.981,220.294 193.18,220.278 	"/>
	<polygon fill="#EFAAC1" points="171.313,220.261 193.164,243.445 193.18,220.278 	"/>
	<polygon fill="#EFAAC1" points="193.196,199.11 171.396,220.261 193.18,220.278 	"/>
	<polygon fill="#F7D6E7" points="482.622,220.494 459.196,199.309 459.181,220.477 	"/>
	<polygon fill="#F1B6D6" points="459.163,243.645 482.54,220.494 459.181,220.477 	"/>
	<polygon fill="#F1B6D6" points="437.873,220.46 459.163,243.645 459.181,220.477 	"/>
	<polygon fill="#F4C5DE" points="459.196,199.309 437.956,220.46 459.181,220.477 	"/>
	<polygon fill="#F4C5DE" points="260.489,220.328 237.197,199.143 237.181,220.31 	"/>
	<polygon fill="#F2B6BD" points="237.163,243.479 260.407,220.328 237.181,220.31 	"/>
	<polygon fill="#ED9CC7" points="215.739,220.295 237.163,243.479 237.181,220.31 	"/>
	<polygon fill="#EFAAC1" points="237.197,199.143 215.822,220.294 237.181,220.31 	"/>
	<polygon fill="#F6D0B7" points="171.636,220.262 148.196,199.076 148.181,220.244 	"/>
	<polygon fill="#F6D0B7" points="148.163,243.412 171.553,220.262 148.181,220.244 	"/>
	<polygon fill="#F6D0B7" points="148.196,199.076 126.97,220.229 148.181,220.244 	"/>
	<polygon fill="#FEFBFD" points="638.197,208.677 614.213,188.491 614.198,208.659 	"/>
	<polygon fill="#FEFBFD" points="615.18,232.827 638.114,209.676 615.197,209.659 	"/>
	<polygon fill="#FEF8FB" points="593.447,209.644 615.18,232.827 615.197,209.659 	"/>
	<polygon fill="#FEFBFD" points="614.213,188.491 593.531,208.644 614.198,208.659 	"/>
	<polygon fill="#FEF8FB" points="660.18,221.794 682.689,198.643 660.197,198.627 	"/>
	<polygon fill="#F7D6E7" points="549.492,198.544 526.213,177.358 526.196,198.526 	"/>
	<polygon fill="#F4C5DE" points="526.18,221.695 549.409,198.543 526.196,198.526 	"/>
	<polygon fill="#F7D6E7" points="504.742,198.51 526.18,221.695 526.196,198.526 	"/>
	<polygon fill="#F7D6E7" points="526.213,177.358 504.823,198.51 526.196,198.526 	"/>
	<polygon fill="#FBECF4" points="371.786,198.411 349.212,177.226 349.197,198.394 	"/>
	<polygon fill="#F1B6D6" points="349.18,221.562 371.704,198.411 349.197,198.394 	"/>
	<polygon fill="#EFABCF" points="327.035,198.377 349.18,221.562 349.197,198.394 	"/>
	<polygon fill="#F1B6D6" points="349.212,177.226 327.119,198.377 349.197,198.394 	"/>
	<polygon fill="#FBECF4" points="593.917,198.577 571.212,177.392 571.197,198.561 	"/>
	<polygon fill="#F7D6E7" points="549.168,198.544 571.18,221.728 571.197,198.561 	"/>
	<polygon fill="#FBECF4" points="571.212,177.392 549.252,198.544 571.197,198.561 	"/>
	<polygon fill="#FBECF4" points="416.213,198.444 393.213,177.259 393.196,198.427 	"/>
	<polygon fill="#FBECF4" points="393.18,221.595 416.131,198.444 393.196,198.427 	"/>
	<polygon fill="#F1B6D6" points="371.462,198.411 393.18,221.595 393.196,198.427 	"/>
	<polygon fill="#FBECF4" points="393.213,177.259 371.545,198.411 393.196,198.427 	"/>
	<polygon fill="#F7D6E7" points="282.931,198.345 260.213,177.16 260.197,198.328 	"/>
	<polygon fill="#EFABCF" points="260.18,221.495 282.85,198.345 260.197,198.328 	"/>
	<polygon fill="#F4C5DE" points="238.181,198.311 260.18,221.495 260.197,198.328 	"/>
	<polygon fill="#EFABCF" points="260.213,177.16 238.266,198.312 260.197,198.328 	"/>
	<polygon fill="#F7D6E7" points="505.063,198.51 482.213,177.326 482.197,198.494 	"/>
	<polygon fill="#F7D6E7" points="482.18,221.662 504.982,198.511 482.197,198.494 	"/>
	<polygon fill="#F4C5DE" points="460.315,198.478 482.18,221.662 482.197,198.494 	"/>
	<polygon fill="#F7D6E7" points="482.213,177.326 460.399,198.478 482.197,198.494 	"/>
	<polygon fill="#FBECF4" points="327.359,198.378 304.213,177.193 304.197,198.36 	"/>
	<polygon fill="#EFABCF" points="304.18,221.529 327.277,198.378 304.197,198.36 	"/>
	<polygon fill="#F7D6E7" points="282.609,198.345 304.18,221.529 304.197,198.36 	"/>
	<polygon fill="#EFABCF" points="304.213,177.193 282.691,198.345 304.197,198.36 	"/>
	<polygon fill="#EFAAC1" points="194.08,198.278 171.212,177.094 171.197,198.262 	"/>
	<polygon fill="#EFAAC1" points="171.18,221.429 193.998,198.278 171.197,198.262 	"/>
	<polygon fill="#EFAAC1" points="149.33,198.245 171.18,221.429 171.197,198.262 	"/>
	<polygon fill="#F6D0B7" points="82.18,221.363 105.145,198.212 82.197,198.195 	"/>
	<polygon fill="#F7D6E7" points="460.64,198.477 437.213,177.292 437.196,198.46 	"/>
	<polygon fill="#F1B6D6" points="437.18,221.628 460.558,198.478 437.196,198.46 	"/>
	<polygon fill="#FBECF4" points="415.89,198.444 437.18,221.628 437.196,198.46 	"/>
	<polygon fill="#F4C5DE" points="437.213,177.292 415.973,198.444 437.196,198.46 	"/>
	<polygon fill="#F4C5DE" points="238.506,198.312 215.213,177.126 215.197,198.294 	"/>
	<polygon fill="#EFAAC1" points="193.755,198.278 215.18,221.462 215.197,198.294 	"/>
	<polygon fill="#EFABCF" points="215.213,177.126 193.838,198.278 215.197,198.294 	"/>
	<polygon fill="#EFAAC1" points="149.652,198.245 126.213,177.06 126.197,198.228 	"/>
	<polygon fill="#EFAAC1" points="126.179,221.396 149.569,198.245 126.197,198.228 	"/>
	<polygon fill="#F6D0B7" points="104.902,198.212 126.179,221.396 126.197,198.228 	"/>
	<polygon fill="#EFAAC1" points="126.213,177.06 104.986,198.212 126.197,198.228 	"/>
	<polygon fill="#F6D0B7" points="38.18,221.33 60.717,198.179 38.197,198.162 	"/>
	<polygon fill="#FFFFFF" points="682.947,208.71 659.213,188.524 659.197,208.692 	"/>
	<polygon fill="#FFFFFF" points="659.18,232.86 682.865,208.71 659.197,208.692 	"/>
	<polygon fill="#FEFBFD" points="638.197,208.677 659.18,232.86 659.197,208.692 	"/>
	<polygon fill="#FFFFFF" points="659.213,188.524 638.281,208.677 659.197,208.692 	"/>
	<polygon fill="#FFFFFF" points="682.98,164.71 659.246,144.524 659.23,164.692 	"/>
	<polygon fill="#FFFFFF" points="659.212,188.86 682.898,164.71 659.23,164.692 	"/>
	<polygon fill="#FFFFFF" points="638.23,164.676 659.212,188.86 659.23,164.692 	"/>
	<polygon fill="#FFFFFF" points="659.246,144.524 638.313,164.677 659.23,164.692 	"/>
	<polygon fill="#FBECF4" points="682.163,243.475 660.054,264.626 682.147,264.643 	"/>
	<polygon fill="#F4C5DE" points="571.442,264.56 548.164,243.375 548.147,264.543 	"/>
	<polygon fill="#F1B6D6" points="548.13,287.71 571.36,264.561 548.147,264.543 	"/>
	<polygon fill="#F1B6D6" points="526.692,264.527 548.13,287.71 548.147,264.543 	"/>
	<polygon fill="#FBECF4" points="548.164,243.375 526.774,264.526 548.147,264.543 	"/>
	<polygon fill="#FBECF4" points="660.294,264.627 637.164,243.441 637.147,264.609 	"/>
	<polygon fill="#FBECF4" points="637.13,287.777 660.212,264.626 637.147,264.609 	"/>
	<polygon fill="#F7D6E7" points="615.544,264.593 637.13,287.777 637.147,264.609 	"/>
	<polygon fill="#FBECF4" points="637.164,243.441 615.628,264.593 637.147,264.609 	"/>
	<polygon fill="#EFABCF" points="393.736,264.427 371.163,243.243 371.147,264.41 	"/>
	<polygon fill="#EFAAC1" points="371.13,287.579 393.654,264.428 371.147,264.41 	"/>
	<polygon fill="#EFAAC1" points="348.986,264.394 371.13,287.579 371.147,264.41 	"/>
	<polygon fill="#EFABCF" points="371.163,243.243 349.071,264.394 371.147,264.41 	"/>
	<polygon fill="#F7D6E7" points="593.13,287.745 615.786,264.594 593.147,264.576 	"/>
	<polygon fill="#F4C5DE" points="571.118,264.561 593.13,287.745 593.147,264.576 	"/>
	<polygon fill="#EFABCF" points="438.163,264.461 415.164,243.276 415.147,264.443 	"/>
	<polygon fill="#ED9CC7" points="415.13,287.611 438.081,264.46 415.147,264.443 	"/>
	<polygon fill="#EFAAC1" points="393.413,264.427 415.13,287.611 415.147,264.443 	"/>
	<polygon fill="#EFABCF" points="415.164,243.276 393.497,264.428 415.147,264.443 	"/>
	<polygon fill="#F2B6BD" points="304.882,264.361 282.164,243.176 282.148,264.344 	"/>
	<polygon fill="#ED9CC7" points="282.13,287.512 304.8,264.361 282.148,264.344 	"/>
	<polygon fill="#F2B6BD" points="260.132,264.328 282.13,287.512 282.148,264.344 	"/>
	<polygon fill="#EFAAC1" points="282.164,243.176 260.216,264.328 282.148,264.344 	"/>
	<polygon fill="#F7D6E7" points="527.015,264.527 504.163,243.342 504.148,264.51 	"/>
	<polygon fill="#EFABCF" points="504.13,287.678 526.933,264.527 504.148,264.51 	"/>
	<polygon fill="#EFABCF" points="482.265,264.494 504.13,287.678 504.148,264.51 	"/>
	<polygon fill="#F1B6D6" points="504.163,243.342 482.349,264.494 504.148,264.51 	"/>
	<polygon fill="#F2B6BD" points="349.311,264.395 326.163,243.209 326.148,264.377 	"/>
	<polygon fill="#F4C5DE" points="326.13,287.544 349.229,264.394 326.148,264.377 	"/>
	<polygon fill="#F2B6BD" points="304.56,264.361 326.13,287.544 326.148,264.377 	"/>
	<polygon fill="#EFAAC1" points="326.163,243.209 304.642,264.361 326.148,264.377 	"/>
	<polygon fill="#F6D0B7" points="216.031,264.294 193.164,243.11 193.148,264.277 	"/>
	<polygon fill="#F4C5BA" points="193.13,287.446 215.948,264.295 193.148,264.277 	"/>
	<polygon fill="#FBE7B1" points="171.28,264.262 193.13,287.446 193.148,264.277 	"/>
	<polygon fill="#F4C5BA" points="193.164,243.11 171.363,264.261 193.148,264.277 	"/>
	<polygon fill="#EFABCF" points="482.589,264.494 459.163,243.309 459.147,264.477 	"/>
	<polygon fill="#EFABCF" points="459.131,287.645 482.507,264.494 459.147,264.477 	"/>
	<polygon fill="#EFABCF" points="437.84,264.46 459.131,287.645 459.147,264.477 	"/>
	<polygon fill="#F4C5DE" points="459.163,243.309 437.923,264.46 459.147,264.477 	"/>
	<polygon fill="#F2B6BD" points="260.456,264.328 237.164,243.143 237.147,264.311 	"/>
	<polygon fill="#F2B6BD" points="237.131,287.479 260.375,264.328 237.147,264.311 	"/>
	<polygon fill="#F4C5BA" points="215.707,264.295 237.131,287.479 237.147,264.311 	"/>
	<polygon fill="#ED9CC7" points="237.164,243.143 215.788,264.295 237.147,264.311 	"/>
	<polygon fill="#F4C5BA" points="148.163,243.077 126.937,264.229 148.147,264.244 	"/>
	<polygon fill="#FEF8FB" points="615.18,232.491 593.497,253.643 615.164,253.659 	"/>
	<polygon fill="#FBECF4" points="682.739,242.644 660.181,221.458 660.164,242.626 	"/>
	<polygon fill="#FBECF4" points="660.146,265.794 682.656,242.643 660.164,242.626 	"/>
	<polygon fill="#FBECF4" points="637.988,242.61 660.146,265.794 660.164,242.626 	"/>
	<polygon fill="#F7D6E7" points="549.459,242.544 526.18,221.358 526.164,242.527 	"/>
	<polygon fill="#F1B6D6" points="504.709,242.51 526.146,265.694 526.164,242.527 	"/>
	<polygon fill="#FBECF4" points="615.146,265.761 638.229,242.61 615.163,242.593 	"/>
	<polygon fill="#EFABCF" points="371.753,242.411 349.18,221.227 349.164,242.395 	"/>
	<polygon fill="#EFABCF" points="349.146,265.562 371.671,242.411 349.164,242.395 	"/>
	<polygon fill="#F2B6BD" points="327.002,242.378 349.146,265.562 349.164,242.395 	"/>
	<polygon fill="#EFABCF" points="349.18,221.227 327.086,242.378 349.164,242.395 	"/>
	<polygon fill="#F7D6E7" points="549.135,242.543 571.146,265.728 571.164,242.56 	"/>
	<polygon fill="#EFABCF" points="416.18,242.444 393.18,221.259 393.164,242.427 	"/>
	<polygon fill="#EFABCF" points="393.147,265.595 416.098,242.444 393.164,242.427 	"/>
	<polygon fill="#EFABCF" points="371.43,242.411 393.147,265.595 393.164,242.427 	"/>
	<polygon fill="#EFABCF" points="393.18,221.259 371.513,242.411 393.164,242.427 	"/>
	<polygon fill="#ED9CC7" points="282.898,242.345 260.18,221.16 260.165,242.327 	"/>
	<polygon fill="#F2B6BD" points="260.146,265.496 282.816,242.344 260.165,242.327 	"/>
	<polygon fill="#EFAAC1" points="238.149,242.311 260.146,265.496 260.165,242.327 	"/>
	<polygon fill="#EFAAC1" points="260.18,221.16 238.232,242.312 260.165,242.327 	"/>
	<polygon fill="#FBECF4" points="505.031,242.511 482.18,221.326 482.164,242.494 	"/>
	<polygon fill="#F1B6D6" points="482.147,265.662 504.949,242.51 482.164,242.494 	"/>
	<polygon fill="#EFABCF" points="460.282,242.478 482.147,265.662 482.164,242.494 	"/>
	<polygon fill="#F1B6D6" points="482.18,221.326 460.366,242.478 482.164,242.494 	"/>
	<polygon fill="#EFAAC1" points="327.326,242.378 304.18,221.192 304.164,242.361 	"/>
	<polygon fill="#ED9CC7" points="304.147,265.528 327.244,242.378 304.164,242.361 	"/>
	<polygon fill="#F2B6BD" points="282.576,242.344 304.147,265.528 304.164,242.361 	"/>
	<polygon fill="#ED9CC7" points="304.18,221.192 282.658,242.345 304.164,242.361 	"/>
	<polygon fill="#F4C5BA" points="194.047,242.278 171.18,221.093 171.164,242.261 	"/>
	<polygon fill="#F6D0B7" points="171.146,265.429 193.965,242.279 171.164,242.261 	"/>
	<polygon fill="#F4C5BA" points="149.297,242.245 171.146,265.429 171.164,242.261 	"/>
	<polygon fill="#EFAAC1" points="171.18,221.093 149.379,242.245 171.164,242.261 	"/>
	<polygon fill="#F6D0B7" points="82.146,265.363 105.111,242.212 82.165,242.195 	"/>
	<polygon fill="#F1B6D6" points="460.606,242.478 437.181,221.292 437.164,242.46 	"/>
	<polygon fill="#F1B6D6" points="437.146,265.628 460.524,242.477 437.164,242.46 	"/>
	<polygon fill="#EFABCF" points="415.856,242.444 437.146,265.628 437.164,242.46 	"/>
	<polygon fill="#F1B6D6" points="437.181,221.292 415.939,242.444 437.164,242.46 	"/>
	<polygon fill="#F2B6BD" points="238.473,242.312 215.18,221.126 215.164,242.294 	"/>
	<polygon fill="#F2B6BD" points="215.147,265.462 238.391,242.312 215.164,242.294 	"/>
	<polygon fill="#EFAAC1" points="193.723,242.278 215.147,265.462 215.164,242.294 	"/>
	<polygon fill="#EFAAC1" points="215.18,221.126 193.805,242.278 215.164,242.294 	"/>
	<polygon fill="#F6D0B7" points="149.619,242.246 126.18,221.06 126.164,242.228 	"/>
	<polygon fill="#F6D0B7" points="104.869,242.212 126.147,265.396 126.164,242.228 	"/>
	<polygon fill="#F6D0B7" points="126.18,221.06 104.954,242.212 126.164,242.228 	"/>
	<polygon fill="#F7D6E7" points="571.41,308.561 548.131,287.375 548.114,308.542 	"/>
	<polygon fill="#EFABCF" points="548.098,331.711 571.327,308.56 548.114,308.542 	"/>
	<polygon fill="#EFABCF" points="526.659,308.526 548.098,331.711 548.114,308.542 	"/>
	<polygon fill="#EFABCF" points="548.131,287.375 526.742,308.527 548.114,308.542 	"/>
	<polygon fill="#EFAAC1" points="393.702,308.428 371.131,287.243 371.115,308.411 	"/>
	<polygon fill="#EFAAC1" points="371.098,331.578 393.621,308.428 371.115,308.411 	"/>
	<polygon fill="#ED9CC7" points="348.953,308.395 371.098,331.578 371.115,308.411 	"/>
	<polygon fill="#F1B6D6" points="371.131,287.243 349.037,308.394 371.115,308.411 	"/>
	<polygon fill="#F7D6E7" points="615.835,308.593 593.131,287.409 593.114,308.577 	"/>
	<polygon fill="#F4C5DE" points="593.098,331.744 615.753,308.593 593.114,308.577 	"/>
	<polygon fill="#F1B6D6" points="571.086,308.56 593.098,331.744 593.114,308.577 	"/>
	<polygon fill="#FBECF4" points="593.131,287.409 571.169,308.561 593.114,308.577 	"/>
	<polygon fill="#EFABCF" points="438.13,308.461 415.131,287.276 415.114,308.443 	"/>
	<polygon fill="#EFAAC1" points="415.098,331.612 438.048,308.461 415.114,308.443 	"/>
	<polygon fill="#F2B6BD" points="393.381,308.428 415.098,331.612 415.114,308.443 	"/>
	<polygon fill="#EFAAC1" points="415.131,287.276 393.462,308.427 415.114,308.443 	"/>
	<polygon fill="#F2B6BD" points="304.849,308.36 282.13,287.176 282.115,308.345 	"/>
	<polygon fill="#F2B6BD" points="282.098,331.512 304.767,308.361 282.115,308.345 	"/>
	<polygon fill="#EFAAC1" points="260.099,308.328 282.098,331.512 282.115,308.345 	"/>
	<polygon fill="#EFAAC1" points="282.13,287.176 260.183,308.327 282.115,308.345 	"/>
	<polygon fill="#EFABCF" points="526.982,308.527 504.131,287.342 504.115,308.51 	"/>
	<polygon fill="#EFABCF" points="504.097,331.678 526.899,308.526 504.115,308.51 	"/>
	<polygon fill="#F4C5DE" points="482.231,308.493 504.097,331.678 504.115,308.51 	"/>
	<polygon fill="#F1B6D6" points="504.131,287.342 482.316,308.493 504.115,308.51 	"/>
	<polygon fill="#F4C5BA" points="349.277,308.394 326.131,287.209 326.115,308.377 	"/>
	<polygon fill="#F2B6BD" points="326.098,331.545 349.194,308.395 326.115,308.377 	"/>
	<polygon fill="#F2B6BD" points="304.527,308.361 326.098,331.545 326.115,308.377 	"/>
	<polygon fill="#EFAAC1" points="326.131,287.209 304.609,308.36 326.115,308.377 	"/>
	<polygon fill="#FBE7B1" points="215.998,308.295 193.131,287.109 193.115,308.278 	"/>
	<polygon fill="#FBE7B1" points="193.098,331.445 215.916,308.295 193.115,308.278 	"/>
	<polygon fill="#F4C5BA" points="171.248,308.261 193.098,331.445 193.115,308.278 	"/>
	<polygon fill="#F6D0B7" points="193.131,287.109 171.33,308.262 193.115,308.278 	"/>
	<polygon fill="#EFABCF" points="482.556,308.494 459.13,287.308 459.115,308.477 	"/>
	<polygon fill="#ED9CC7" points="459.098,331.645 482.475,308.494 459.115,308.477 	"/>
	<polygon fill="#EFAAC1" points="437.806,308.46 459.098,331.645 459.115,308.477 	"/>
	<polygon fill="#F1B6D6" points="459.13,287.308 437.89,308.46 459.115,308.477 	"/>
	<polygon fill="#F4C5BA" points="260.423,308.328 237.13,287.143 237.115,308.311 	"/>
	<polygon fill="#F4C5BA" points="237.098,331.479 260.342,308.327 237.115,308.311 	"/>
	<polygon fill="#F6D0B7" points="215.673,308.295 237.098,331.479 237.115,308.311 	"/>
	<polygon fill="#F6D0B7" points="237.13,287.143 215.755,308.294 237.115,308.311 	"/>
	<polygon fill="#F6D0B7" points="148.097,331.412 171.488,308.262 148.115,308.244 	"/>
	<polygon fill="#F1B6D6" points="549.426,286.543 526.147,265.358 526.131,286.526 	"/>
	<polygon fill="#F1B6D6" points="526.113,309.694 549.344,286.544 526.131,286.526 	"/>
	<polygon fill="#EFABCF" points="504.676,286.511 526.113,309.694 526.131,286.526 	"/>
	<polygon fill="#EFABCF" points="526.147,265.358 504.758,286.51 526.131,286.526 	"/>
	<polygon fill="#FBECF4" points="638.278,286.61 615.147,265.425 615.131,286.593 	"/>
	<polygon fill="#F4C5DE" points="593.527,286.577 615.113,309.761 615.131,286.593 	"/>
	<polygon fill="#F7D6E7" points="615.147,265.425 593.611,286.577 615.131,286.593 	"/>
	<polygon fill="#EFAAC1" points="371.719,286.411 349.147,265.226 349.131,286.394 	"/>
	<polygon fill="#EFAAC1" points="349.114,309.562 371.637,286.411 349.131,286.394 	"/>
	<polygon fill="#ED9CC7" points="326.969,286.377 349.114,309.562 349.131,286.394 	"/>
	<polygon fill="#F2B6BD" points="349.147,265.226 327.053,286.377 349.131,286.394 	"/>
	<polygon fill="#F7D6E7" points="593.852,286.577 571.146,265.392 571.131,286.56 	"/>
	<polygon fill="#F1B6D6" points="571.114,309.728 593.771,286.577 571.131,286.56 	"/>
	<polygon fill="#F1B6D6" points="549.103,286.544 571.114,309.728 571.131,286.56 	"/>
	<polygon fill="#F1B6D6" points="571.146,265.392 549.186,286.543 571.131,286.56 	"/>
	<polygon fill="#EFAAC1" points="416.146,286.444 393.147,265.26 393.132,286.427 	"/>
	<polygon fill="#EFAAC1" points="393.114,309.595 416.064,286.444 393.132,286.427 	"/>
	<polygon fill="#EFAAC1" points="371.396,286.411 393.114,309.595 393.132,286.427 	"/>
	<polygon fill="#F4C5DE" points="393.147,265.26 371.479,286.411 393.132,286.427 	"/>
	<polygon fill="#F2B6BD" points="282.866,286.345 260.146,265.16 260.131,286.328 	"/>
	<polygon fill="#F2B6BD" points="260.114,309.495 282.783,286.345 260.131,286.328 	"/>
	<polygon fill="#F4C5BA" points="238.116,286.312 260.114,309.495 260.131,286.328 	"/>
	<polygon fill="#EFAAC1" points="260.146,265.16 238.199,286.311 260.131,286.328 	"/>
	<polygon fill="#EFABCF" points="504.998,286.51 482.146,265.325 482.132,286.494 	"/>
	<polygon fill="#EFABCF" points="482.114,309.661 504.916,286.511 482.132,286.494 	"/>
	<polygon fill="#EFABCF" points="460.249,286.478 482.114,309.661 482.132,286.494 	"/>
	<polygon fill="#F4C5DE" points="482.146,265.325 460.333,286.478 482.132,286.494 	"/>
	<polygon fill="#EFAAC1" points="327.293,286.378 304.147,265.192 304.132,286.36 	"/>
	<polygon fill="#EFAAC1" points="304.114,309.528 327.211,286.378 304.132,286.36 	"/>
	<polygon fill="#EFAAC1" points="282.543,286.345 304.114,309.528 304.132,286.36 	"/>
	<polygon fill="#EFAAC1" points="304.147,265.192 282.625,286.344 304.132,286.36 	"/>
	<polygon fill="#F6D0B7" points="194.014,286.278 171.147,265.093 171.131,286.261 	"/>
	<polygon fill="#F2B6BD" points="171.114,309.429 193.932,286.278 171.131,286.261 	"/>
	<polygon fill="#F2B6BD" points="149.264,286.245 171.114,309.429 171.131,286.261 	"/>
	<polygon fill="#F2B6BD" points="171.147,265.093 149.346,286.245 171.131,286.261 	"/>
	<polygon fill="#EFABCF" points="460.573,286.478 437.147,265.292 437.131,286.46 	"/>
	<polygon fill="#ED9CC7" points="437.114,309.628 460.49,286.477 437.131,286.46 	"/>
	<polygon fill="#EFAAC1" points="415.822,286.444 437.114,309.628 437.131,286.46 	"/>
	<polygon fill="#F4C5BA" points="238.44,286.312 215.147,265.126 215.131,286.294 	"/>
	<polygon fill="#F6D0B7" points="215.114,309.462 238.357,286.312 215.131,286.294 	"/>
	<polygon fill="#FBE7B1" points="193.69,286.279 215.114,309.462 215.131,286.294 	"/>
	<polygon fill="#F4C5BA" points="215.147,265.126 193.772,286.278 215.131,286.294 	"/>
	<polygon fill="#F6D0B7" points="126.147,265.06 104.92,286.212 126.131,286.228 	"/>
	<polygon fill="#FEFBFD" points="682.915,252.71 659.18,232.524 659.165,252.692 	"/>
	<polygon fill="#EFABCF" points="571.377,352.561 548.098,331.375 548.082,352.543 	"/>
	<polygon fill="#F1B6D6" points="548.064,375.711 571.295,352.561 548.082,352.543 	"/>
	<polygon fill="#EFABCF" points="526.627,352.527 548.064,375.711 548.082,352.543 	"/>
	<polygon fill="#F4C5BA" points="393.67,352.428 371.098,331.243 371.082,352.41 	"/>
	<polygon fill="#F4C5BA" points="371.065,375.579 393.588,352.427 371.082,352.41 	"/>
	<polygon fill="#EFAAC1" points="348.92,352.394 371.065,375.579 371.082,352.41 	"/>
	<polygon fill="#F2B6BD" points="371.098,331.243 349.004,352.395 371.082,352.41 	"/>
	<polygon fill="#EFABCF" points="593.098,331.408 571.136,352.56 593.082,352.576 	"/>
	<polygon fill="#F2B6BD" points="438.098,352.461 415.098,331.275 415.082,352.444 	"/>
	<polygon fill="#EFAAC1" points="415.064,375.611 438.016,352.46 415.082,352.444 	"/>
	<polygon fill="#F4C5BA" points="393.348,352.427 415.064,375.611 415.082,352.444 	"/>
	<polygon fill="#F8DBB4" points="304.816,352.361 282.098,331.176 282.082,352.344 	"/>
	<polygon fill="#F8DBB4" points="282.064,375.513 304.734,352.36 282.082,352.344 	"/>
	<polygon fill="#F6D0B7" points="260.066,352.327 282.064,375.513 282.082,352.344 	"/>
	<polygon fill="#F4C5BA" points="282.098,331.176 260.15,352.327 282.082,352.344 	"/>
	<polygon fill="#EFABCF" points="526.949,352.527 504.098,331.342 504.082,352.51 	"/>
	<polygon fill="#F1B6D6" points="504.064,375.678 526.867,352.527 504.082,352.51 	"/>
	<polygon fill="#ED9CC7" points="482.199,352.494 504.064,375.678 504.082,352.51 	"/>
	<polygon fill="#F1B6D6" points="504.098,331.342 482.283,352.493 504.082,352.51 	"/>
	<polygon fill="#F4C5BA" points="349.244,352.395 326.097,331.209 326.082,352.377 	"/>
	<polygon fill="#F4C5BA" points="326.064,375.545 349.162,352.394 326.082,352.377 	"/>
	<polygon fill="#F6D0B7" points="304.494,352.36 326.064,375.545 326.082,352.377 	"/>
	<polygon fill="#F6D0B7" points="326.097,331.209 304.576,352.361 326.082,352.377 	"/>
	<polygon fill="#FBE7B1" points="215.965,352.295 193.098,331.109 193.082,352.277 	"/>
	<polygon fill="#FAE1B2" points="193.065,375.445 215.882,352.295 193.082,352.277 	"/>
	<polygon fill="#F6D0B7" points="193.098,331.109 171.297,352.261 193.082,352.277 	"/>
	<polygon fill="#EFAAC1" points="482.523,352.493 459.098,331.309 459.082,352.477 	"/>
	<polygon fill="#F2B6BD" points="459.064,375.645 482.441,352.494 459.082,352.477 	"/>
	<polygon fill="#F2B6BD" points="437.773,352.46 459.064,375.645 459.082,352.477 	"/>
	<polygon fill="#EFAAC1" points="459.098,331.309 437.857,352.461 459.082,352.477 	"/>
	<polygon fill="#F6D0B7" points="260.39,352.328 237.098,331.143 237.082,352.311 	"/>
	<polygon fill="#F8DBB4" points="215.641,352.295 237.064,375.479 237.082,352.311 	"/>
	<polygon fill="#F6D0B7" points="237.098,331.143 215.722,352.295 237.082,352.311 	"/>
	<polygon fill="#F2B6BD" points="126.787,352.229 148.064,375.412 148.082,352.244 	"/>
	<polygon fill="#EFABCF" points="549.394,330.544 526.114,309.358 526.098,330.526 	"/>
	<polygon fill="#F1B6D6" points="526.081,353.694 549.311,330.544 526.098,330.526 	"/>
	<polygon fill="#F4C5DE" points="504.643,330.511 526.081,353.694 526.098,330.526 	"/>
	<polygon fill="#EFABCF" points="526.114,309.358 504.726,330.511 526.098,330.526 	"/>
	<polygon fill="#FBECF4" points="615.114,309.425 593.579,330.577 615.098,330.593 	"/>
	<polygon fill="#F4C5BA" points="371.686,330.411 349.115,309.227 349.099,330.395 	"/>
	<polygon fill="#F4C5BA" points="349.081,353.562 371.604,330.411 349.099,330.395 	"/>
	<polygon fill="#F4C5BA" points="326.937,330.378 349.081,353.562 349.099,330.395 	"/>
	<polygon fill="#ED9CC7" points="349.115,309.227 327.02,330.378 349.099,330.395 	"/>
	<polygon fill="#F7D6E7" points="593.819,330.577 571.114,309.393 571.099,330.56 	"/>
	<polygon fill="#EFABCF" points="571.081,353.728 593.737,330.577 571.099,330.56 	"/>
	<polygon fill="#EFABCF" points="549.069,330.544 571.081,353.728 571.099,330.56 	"/>
	<polygon fill="#F1B6D6" points="416.113,330.444 393.114,309.259 393.099,330.427 	"/>
	<polygon fill="#ED9CC7" points="393.082,353.595 416.032,330.444 393.099,330.427 	"/>
	<polygon fill="#F4C5BA" points="371.364,330.411 393.082,353.595 393.099,330.427 	"/>
	<polygon fill="#F2B6BD" points="393.114,309.259 371.446,330.411 393.099,330.427 	"/>
	<polygon fill="#F8DBB4" points="282.833,330.345 260.114,309.159 260.099,330.327 	"/>
	<polygon fill="#F8DBB4" points="260.081,353.496 282.751,330.345 260.099,330.327 	"/>
	<polygon fill="#F2B6BD" points="238.083,330.312 260.081,353.496 260.099,330.327 	"/>
	<polygon fill="#F6D0B7" points="260.114,309.159 238.167,330.311 260.099,330.327 	"/>
	<polygon fill="#EFABCF" points="504.966,330.511 482.114,309.326 482.099,330.493 	"/>
	<polygon fill="#ED9CC7" points="482.081,353.661 504.883,330.511 482.099,330.493 	"/>
	<polygon fill="#ED9CC7" points="460.215,330.478 482.081,353.661 482.099,330.493 	"/>
	<polygon fill="#EFAAC1" points="327.26,330.378 304.114,309.193 304.098,330.36 	"/>
	<polygon fill="#F4C5BA" points="304.082,353.528 327.179,330.378 304.098,330.36 	"/>
	<polygon fill="#F6D0B7" points="282.511,330.345 304.082,353.528 304.098,330.36 	"/>
	<polygon fill="#F2B6BD" points="304.114,309.193 282.592,330.345 304.098,330.36 	"/>
	<polygon fill="#F6D0B7" points="171.114,309.094 149.313,330.245 171.099,330.261 	"/>
	<polygon fill="#EFAAC1" points="460.54,330.478 437.114,309.292 437.099,330.46 	"/>
	<polygon fill="#EFABCF" points="437.081,353.628 460.458,330.478 437.099,330.46 	"/>
	<polygon fill="#F2B6BD" points="415.789,330.443 437.081,353.628 437.099,330.46 	"/>
	<polygon fill="#EFAAC1" points="437.114,309.292 415.873,330.444 437.099,330.46 	"/>
	<polygon fill="#F4C5BA" points="238.407,330.312 215.114,309.126 215.098,330.294 	"/>
	<polygon fill="#F6D0B7" points="215.081,353.462 238.325,330.312 215.098,330.294 	"/>
	<polygon fill="#FAE1B2" points="193.657,330.278 215.081,353.462 215.098,330.294 	"/>
	<polygon fill="#F4C5BA" points="215.114,309.126 193.739,330.278 215.098,330.294 	"/>
	<polygon fill="#F6D0B7" points="393.638,396.427 371.064,375.243 371.049,396.411 	"/>
	<polygon fill="#F6D0B7" points="371.032,419.578 393.555,396.428 371.049,396.411 	"/>
	<polygon fill="#F6D0B7" points="348.887,396.394 371.032,419.578 371.049,396.411 	"/>
	<polygon fill="#F4C5BA" points="371.064,375.243 348.971,396.394 371.049,396.411 	"/>
	<polygon fill="#F4C5BA" points="438.064,396.46 415.065,375.275 415.05,396.443 	"/>
	<polygon fill="#F4C5BA" points="415.031,419.611 437.982,396.461 415.05,396.443 	"/>
	<polygon fill="#EFAAC1" points="393.314,396.428 415.031,419.611 415.05,396.443 	"/>
	<polygon fill="#ED9CC7" points="415.065,375.275 393.396,396.427 415.05,396.443 	"/>
	<polygon fill="#F8DBB4" points="304.784,396.361 282.065,375.176 282.049,396.345 	"/>
	<polygon fill="#F8DBB4" points="282.032,419.512 304.701,396.361 282.049,396.345 	"/>
	<polygon fill="#F6D0B7" points="260.033,396.328 282.032,419.512 282.049,396.345 	"/>
	<polygon fill="#F6D0B7" points="282.065,375.176 260.117,396.327 282.049,396.345 	"/>
	<polygon fill="#EFAAC1" points="526.916,396.526 504.065,375.342 504.049,396.51 	"/>
	<polygon fill="#EFAAC1" points="482.166,396.494 504.031,419.678 504.049,396.51 	"/>
	<polygon fill="#ED9CC7" points="504.065,375.342 482.25,396.494 504.049,396.51 	"/>
	<polygon fill="#F6D0B7" points="349.211,396.395 326.065,375.209 326.049,396.377 	"/>
	<polygon fill="#F8DBB4" points="326.032,419.546 349.129,396.394 326.049,396.377 	"/>
	<polygon fill="#F6D0B7" points="304.462,396.36 326.032,419.546 326.049,396.377 	"/>
	<polygon fill="#F4C5BA" points="326.065,375.209 304.543,396.36 326.049,396.377 	"/>
	<polygon fill="#FBE7B1" points="193.032,419.445 215.85,396.295 193.05,396.277 	"/>
	<polygon fill="#F4C5BA" points="482.49,396.494 459.064,375.309 459.049,396.477 	"/>
	<polygon fill="#EFABCF" points="459.032,419.645 482.408,396.493 459.049,396.477 	"/>
	<polygon fill="#F1B6D6" points="437.74,396.46 459.032,419.645 459.049,396.477 	"/>
	<polygon fill="#F2B6BD" points="459.064,375.309 437.824,396.46 459.049,396.477 	"/>
	<polygon fill="#FAE1B2" points="260.357,396.328 237.065,375.143 237.049,396.311 	"/>
	<polygon fill="#F8DBB4" points="237.065,375.143 215.689,396.294 237.049,396.311 	"/>
	<polygon fill="#EFABCF" points="549.36,374.544 526.081,353.358 526.065,374.526 	"/>
	<polygon fill="#ED9CC7" points="526.048,397.694 549.278,374.544 526.065,374.526 	"/>
	<polygon fill="#F1B6D6" points="526.081,353.358 504.692,374.511 526.065,374.526 	"/>
	<polygon fill="#F6D0B7" points="371.654,374.411 349.082,353.226 349.065,374.395 	"/>
	<polygon fill="#EFAAC1" points="349.049,397.562 371.571,374.411 349.065,374.395 	"/>
	<polygon fill="#ED9CC7" points="349.082,353.226 326.987,374.378 349.065,374.395 	"/>
	<polygon fill="#F4C5DE" points="571.081,353.393 549.12,374.543 571.065,374.56 	"/>
	<polygon fill="#F4C5BA" points="416.081,374.444 393.081,353.259 393.066,374.427 	"/>
	<polygon fill="#EFAAC1" points="393.048,397.595 415.999,374.444 393.066,374.427 	"/>
	<polygon fill="#F6D0B7" points="371.331,374.411 393.048,397.595 393.066,374.427 	"/>
	<polygon fill="#ED9CC7" points="393.081,353.259 371.414,374.411 393.066,374.427 	"/>
	<polygon fill="#F8DBB4" points="282.8,374.345 260.082,353.159 260.065,374.328 	"/>
	<polygon fill="#F6D0B7" points="260.048,397.496 282.717,374.345 260.065,374.328 	"/>
	<polygon fill="#F6D0B7" points="238.049,374.312 260.048,397.496 260.065,374.328 	"/>
	<polygon fill="#F6D0B7" points="260.082,353.159 238.134,374.312 260.065,374.328 	"/>
	<polygon fill="#F2B6BD" points="504.933,374.511 482.081,353.325 482.065,374.493 	"/>
	<polygon fill="#ED9CC7" points="460.183,374.478 482.048,397.662 482.065,374.493 	"/>
	<polygon fill="#EFABCF" points="482.081,353.325 460.267,374.477 482.065,374.493 	"/>
	<polygon fill="#F6D0B7" points="327.228,374.378 304.081,353.192 304.066,374.36 	"/>
	<polygon fill="#F6D0B7" points="304.048,397.528 327.146,374.377 304.066,374.36 	"/>
	<polygon fill="#F2B6BD" points="282.477,374.345 304.048,397.528 304.066,374.36 	"/>
	<polygon fill="#F8DBB4" points="304.081,353.192 282.56,374.345 304.066,374.36 	"/>
	<polygon fill="#F1B6D6" points="460.507,374.478 437.082,353.292 437.065,374.46 	"/>
	<polygon fill="#EFAAC1" points="437.048,397.628 460.425,374.478 437.065,374.46 	"/>
	<polygon fill="#F4C5BA" points="437.082,353.292 415.841,374.444 437.065,374.46 	"/>
	<polygon fill="#FAE1B2" points="238.374,374.312 215.081,353.126 215.066,374.294 	"/>
	<polygon fill="#FAE1B2" points="215.048,397.462 238.292,374.312 215.066,374.294 	"/>
	<polygon fill="#FBE7B1" points="193.625,374.278 215.048,397.462 215.066,374.294 	"/>
	<polygon fill="#F4C5BA" points="215.081,353.126 193.706,374.278 215.066,374.294 	"/>
	<polygon fill="#ED9CC7" points="371.032,419.243 348.938,440.394 371.016,440.41 	"/>
	<polygon fill="#F6D0B7" points="349.178,440.395 326.032,419.209 326.016,440.378 	"/>
	<polygon fill="#F6D0B7" points="326.032,419.209 304.51,440.361 326.016,440.378 	"/>
	<polygon fill="#ED9CC7" points="371.621,418.411 349.048,397.226 349.033,418.395 	"/>
	<polygon fill="#F8DBB4" points="349.015,441.562 371.539,418.411 349.033,418.395 	"/>
	<polygon fill="#F4C5BA" points="349.048,397.226 326.955,418.377 349.033,418.395 	"/>
	<polygon fill="#F4C5BA" points="416.047,418.444 393.048,397.26 393.032,418.427 	"/>
	<polygon fill="#EFAAC1" points="504.9,418.511 482.049,397.326 482.032,418.494 	"/>
	<polygon fill="#ED9CC7" points="482.049,397.326 460.233,418.478 482.032,418.494 	"/>
	<polygon fill="#F2B6BD" points="327.194,418.378 304.049,397.192 304.032,418.36 	"/>
	<polygon fill="#F8DBB4" points="304.016,441.529 327.113,418.378 304.032,418.36 	"/>
	<polygon fill="#F6D0B7" points="282.445,418.345 304.016,441.529 304.032,418.36 	"/>
	<polygon fill="#F4C5BA" points="460.474,418.478 437.049,397.292 437.032,418.459 	"/>
	<polygon fill="#FBE7B1" points="215.049,397.126 193.673,418.277 215.032,418.294 	"/>
	<polygon fill="#FBECF4" points="527.541,132.528 504.262,111.342 504.246,132.51 	"/>
	<polygon fill="#F7D6E7" points="504.229,155.678 527.459,132.527 504.246,132.51 	"/>
	<polygon fill="#FBECF4" points="482.791,132.494 504.229,155.678 504.246,132.51 	"/>
	<polygon fill="#FBECF4" points="504.262,111.342 482.873,132.495 504.246,132.51 	"/>
	<polygon fill="#FBECF4" points="349.835,132.395 327.262,111.21 327.246,132.378 	"/>
	<polygon fill="#F4C5DE" points="327.229,155.545 349.753,132.395 327.246,132.378 	"/>
	<polygon fill="#F7D6E7" points="305.085,132.361 327.229,155.545 327.246,132.378 	"/>
	<polygon fill="#F7D6E7" points="327.262,111.21 305.169,132.361 327.246,132.378 	"/>
	<polygon fill="#FBECF4" points="394.262,132.428 371.262,111.243 371.246,132.411 	"/>
	<polygon fill="#F7D6E7" points="371.229,155.579 394.18,132.428 371.246,132.411 	"/>
	<polygon fill="#FBECF4" points="483.113,132.495 460.263,111.309 460.246,132.477 	"/>
	<polygon fill="#FBECF4" points="438.363,132.461 460.229,155.645 460.246,132.477 	"/>
	<polygon fill="#FBECF4" points="460.263,111.309 438.447,132.461 460.246,132.477 	"/>
	<polygon fill="#F7D6E7" points="305.409,132.361 282.262,111.176 282.246,132.344 	"/>
	<polygon fill="#FBECF4" points="282.229,155.512 305.327,132.362 282.246,132.344 	"/>
	<polygon fill="#F7D6E7" points="260.658,132.328 282.229,155.512 282.246,132.344 	"/>
	<polygon fill="#F7D6E7" points="282.262,111.176 260.741,132.328 282.246,132.344 	"/>
	<polygon fill="#FBECF4" points="438.688,132.461 415.263,111.275 415.246,132.443 	"/>
	<polygon fill="#F7D6E7" points="393.938,132.428 415.229,155.612 415.246,132.443 	"/>
	<polygon fill="#FEF8FB" points="505.558,110.511 482.278,89.326 482.263,110.494 	"/>
	<polygon fill="#FBECF4" points="482.245,133.661 505.476,110.511 482.263,110.494 	"/>
	<polygon fill="#F7D6E7" points="283.1,110.345 305.246,133.529 305.263,110.362 	"/>
	<polygon fill="#FEF8FB" points="527.278,89.359 505.317,110.51 527.263,110.527 	"/>
	<polygon fill="#FBECF4" points="349.245,133.562 372.196,110.411 349.263,110.395 	"/>
	<polygon fill="#FBECF4" points="327.528,110.378 349.245,133.562 349.263,110.395 	"/>
	<polygon fill="#FBECF4" points="416.381,110.444 438.245,133.629 438.263,110.461 	"/>
	<polygon fill="#FBECF4" points="283.425,110.345 260.278,89.16 260.263,110.328 	"/>
	<polygon fill="#FBECF4" points="260.245,133.496 283.343,110.345 260.263,110.328 	"/>
	<polygon fill="#FBECF4" points="371.955,110.412 393.245,133.595 393.263,110.427 	"/>
	<polygon fill="#FBECF4" points="527.508,176.527 504.229,155.342 504.214,176.51 	"/>
	<polygon fill="#F7D6E7" points="504.195,199.678 527.427,176.527 504.214,176.51 	"/>
	<polygon fill="#F4C5DE" points="482.759,176.494 504.195,199.678 504.214,176.51 	"/>
	<polygon fill="#F7D6E7" points="504.229,155.342 482.841,176.494 504.214,176.51 	"/>
	<polygon fill="#F7D6E7" points="349.802,176.395 327.229,155.21 327.213,176.377 	"/>
	<polygon fill="#EFABCF" points="327.196,199.546 349.72,176.395 327.213,176.377 	"/>
	<polygon fill="#EFABCF" points="305.052,176.361 327.196,199.546 327.213,176.377 	"/>
	<polygon fill="#F1B6D6" points="327.229,155.21 305.136,176.361 327.213,176.377 	"/>
	<polygon fill="#FBECF4" points="527.184,176.527 549.196,199.712 549.213,176.543 	"/>
	<polygon fill="#F7D6E7" points="394.229,176.428 371.229,155.243 371.213,176.411 	"/>
	<polygon fill="#F1B6D6" points="371.196,199.579 394.146,176.428 371.213,176.411 	"/>
	<polygon fill="#F1B6D6" points="349.479,176.395 371.196,199.579 371.213,176.411 	"/>
	<polygon fill="#F1B6D6" points="371.229,155.243 349.562,176.395 371.213,176.411 	"/>
	<polygon fill="#F4C5DE" points="483.08,176.494 460.229,155.309 460.213,176.477 	"/>
	<polygon fill="#F1B6D6" points="460.196,199.645 482.999,176.494 460.213,176.477 	"/>
	<polygon fill="#F1B6D6" points="438.331,176.461 460.196,199.645 460.213,176.477 	"/>
	<polygon fill="#FBECF4" points="460.229,155.309 438.414,176.461 460.213,176.477 	"/>
	<polygon fill="#EFABCF" points="305.376,176.362 282.229,155.176 282.213,176.344 	"/>
	<polygon fill="#ED9CC7" points="282.196,199.512 305.294,176.361 282.213,176.344 	"/>
	<polygon fill="#ED9CC7" points="260.625,176.328 282.196,199.512 282.213,176.344 	"/>
	<polygon fill="#EFABCF" points="282.229,155.176 260.708,176.328 282.213,176.344 	"/>
	<polygon fill="#F7D6E7" points="438.654,176.461 415.229,155.276 415.213,176.444 	"/>
	<polygon fill="#F1B6D6" points="415.196,199.611 438.572,176.461 415.213,176.444 	"/>
	<polygon fill="#F1B6D6" points="393.906,176.428 415.196,199.611 415.213,176.444 	"/>
	<polygon fill="#F4C5DE" points="415.229,155.276 393.988,176.428 415.213,176.444 	"/>
	<polygon fill="#F7D6E7" points="505.525,154.511 482.245,133.325 482.229,154.493 	"/>
	<polygon fill="#F4C5DE" points="482.213,177.662 505.442,154.511 482.229,154.493 	"/>
	<polygon fill="#F7D6E7" points="460.774,154.478 482.213,177.662 482.229,154.493 	"/>
	<polygon fill="#F7D6E7" points="482.245,133.325 460.857,154.478 482.229,154.493 	"/>
	<polygon fill="#FBECF4" points="327.819,154.378 305.246,133.193 305.23,154.361 	"/>
	<polygon fill="#F1B6D6" points="305.212,177.529 327.737,154.378 305.23,154.361 	"/>
	<polygon fill="#EFABCF" points="283.068,154.345 305.212,177.529 305.23,154.361 	"/>
	<polygon fill="#F1B6D6" points="305.246,133.193 283.152,154.345 305.23,154.361 	"/>
	<polygon fill="#F7D6E7" points="505.2,154.511 527.212,177.695 527.229,154.527 	"/>
	<polygon fill="#FBECF4" points="527.245,133.36 505.284,154.511 527.229,154.527 	"/>
	<polygon fill="#FBECF4" points="372.245,154.411 349.246,133.227 349.229,154.395 	"/>
	<polygon fill="#FBECF4" points="349.212,177.562 372.164,154.412 349.229,154.395 	"/>
	<polygon fill="#F1B6D6" points="327.496,154.378 349.212,177.562 349.229,154.395 	"/>
	<polygon fill="#FBECF4" points="349.246,133.227 327.579,154.378 349.229,154.395 	"/>
	<polygon fill="#F7D6E7" points="461.098,154.478 438.246,133.293 438.229,154.461 	"/>
	<polygon fill="#F7D6E7" points="438.212,177.628 461.015,154.478 438.229,154.461 	"/>
	<polygon fill="#F4C5DE" points="416.348,154.444 438.212,177.628 438.229,154.461 	"/>
	<polygon fill="#FBECF4" points="283.392,154.345 260.246,133.16 260.229,154.328 	"/>
	<polygon fill="#EFABCF" points="260.212,177.496 283.31,154.345 260.229,154.328 	"/>
	<polygon fill="#F7D6E7" points="416.672,154.444 393.245,133.259 393.229,154.427 	"/>
	<polygon fill="#F1B6D6" points="393.212,177.595 416.59,154.444 393.229,154.427 	"/>
	<polygon fill="#FBECF4" points="371.922,154.411 393.212,177.595 393.229,154.427 	"/>
	<polygon fill="#F4C5DE" points="393.245,133.259 372.005,154.411 393.229,154.427 	"/>
	<polygon fill="#F4C5DE" points="527.476,220.528 504.196,199.342 504.181,220.51 	"/>
	<polygon fill="#FBECF4" points="504.196,199.342 482.808,220.494 504.181,220.51 	"/>
	<polygon fill="#EFABCF" points="349.77,220.395 327.196,199.21 327.181,220.378 	"/>
	<polygon fill="#EFABCF" points="327.196,199.21 305.104,220.361 327.181,220.378 	"/>
	<polygon fill="#F7D6E7" points="571.901,220.561 549.196,199.375 549.181,220.544 	"/>
	<polygon fill="#FBECF4" points="549.196,199.375 527.235,220.527 549.181,220.544 	"/>
	<polygon fill="#EFABCF" points="394.196,220.428 371.196,199.243 371.181,220.411 	"/>
	<polygon fill="#EFABCF" points="371.196,199.243 349.529,220.395 371.181,220.411 	"/>
	<polygon fill="#F7D6E7" points="483.048,220.494 460.196,199.31 460.181,220.477 	"/>
	<polygon fill="#F1B6D6" points="460.196,199.31 438.382,220.461 460.181,220.477 	"/>
	<polygon fill="#F2B6BD" points="305.344,220.361 282.196,199.177 282.181,220.344 	"/>
	<polygon fill="#EFAAC1" points="282.196,199.177 260.674,220.328 282.181,220.344 	"/>
	<polygon fill="#EFABCF" points="438.622,220.461 415.196,199.275 415.181,220.443 	"/>
	<polygon fill="#F4C5DE" points="415.196,199.275 393.956,220.428 415.181,220.443 	"/>
	<polygon fill="#F7D6E7" points="505.492,198.511 482.213,177.326 482.197,198.494 	"/>
	<polygon fill="#F7D6E7" points="482.18,221.662 505.41,198.511 482.197,198.494 	"/>
	<polygon fill="#F1B6D6" points="460.742,198.478 482.18,221.662 482.197,198.494 	"/>
	<polygon fill="#FBECF4" points="482.213,177.326 460.824,198.478 482.197,198.494 	"/>
	<polygon fill="#F7D6E7" points="549.594,198.544 571.18,221.728 571.197,198.561 	"/>
	<polygon fill="#FBECF4" points="571.212,177.392 549.678,198.544 571.197,198.561 	"/>
	<polygon fill="#EFABCF" points="327.786,198.378 305.213,177.193 305.197,198.361 	"/>
	<polygon fill="#EFABCF" points="305.18,221.529 327.704,198.378 305.197,198.361 	"/>
	<polygon fill="#F2B6BD" points="283.035,198.345 305.18,221.529 305.197,198.361 	"/>
	<polygon fill="#EFABCF" points="305.213,177.193 283.119,198.345 305.197,198.361 	"/>
	<polygon fill="#F7D6E7" points="549.918,198.544 527.213,177.359 527.196,198.527 	"/>
	<polygon fill="#F7D6E7" points="527.18,221.695 549.835,198.544 527.196,198.527 	"/>
	<polygon fill="#F7D6E7" points="505.167,198.511 527.18,221.695 527.196,198.527 	"/>
	<polygon fill="#FBECF4" points="527.213,177.359 505.251,198.511 527.196,198.527 	"/>
	<polygon fill="#EFABCF" points="372.212,198.411 349.212,177.226 349.197,198.394 	"/>
	<polygon fill="#EFABCF" points="349.18,221.562 372.13,198.411 349.197,198.394 	"/>
	<polygon fill="#EFABCF" points="327.462,198.378 349.18,221.562 349.197,198.394 	"/>
	<polygon fill="#EFABCF" points="349.212,177.226 327.545,198.378 349.197,198.394 	"/>
	<polygon fill="#FBECF4" points="461.064,198.478 438.213,177.292 438.196,198.46 	"/>
	<polygon fill="#F1B6D6" points="438.18,221.629 460.982,198.478 438.196,198.46 	"/>
	<polygon fill="#EFABCF" points="416.314,198.444 438.18,221.629 438.196,198.46 	"/>
	<polygon fill="#F1B6D6" points="438.213,177.292 416.399,198.444 438.196,198.46 	"/>
	<polygon fill="#EFAAC1" points="283.359,198.345 260.213,177.16 260.197,198.328 	"/>
	<polygon fill="#ED9CC7" points="260.18,221.495 283.277,198.345 260.197,198.328 	"/>
	<polygon fill="#F1B6D6" points="416.64,198.444 393.213,177.259 393.196,198.427 	"/>
	<polygon fill="#F1B6D6" points="393.18,221.595 416.558,198.445 393.196,198.427 	"/>
	<polygon fill="#EFABCF" points="371.889,198.411 393.18,221.595 393.196,198.427 	"/>
	<polygon fill="#F1B6D6" points="393.213,177.259 371.972,198.411 393.196,198.427 	"/>
	<polygon fill="#FEF8FB" points="501.558,110.508 478.278,89.323 478.263,110.491 	"/>
	<polygon fill="#FBECF4" points="301.278,89.191 279.185,110.342 301.263,110.358 	"/>
	<polygon fill="#FEF8FB" points="523.278,89.356 501.317,110.508 523.263,110.524 	"/>
	<polygon fill="#FBECF4" points="279.425,110.342 256.278,89.157 256.263,110.325 	"/>
	<polygon fill="#FBECF4" points="256.278,89.157 234.757,110.309 256.263,110.325 	"/>
	<polygon fill="#FBECF4" points="301.868,88.359 279.295,67.174 279.279,88.342 	"/>
	<polygon fill="#F4C5DE" points="279.262,111.51 301.786,88.359 279.279,88.342 	"/>
	<polygon fill="#FBECF4" points="523.999,88.524 501.295,67.34 501.279,88.508 	"/>
	<polygon fill="#FBECF4" points="501.262,111.676 523.918,88.525 501.279,88.508 	"/>
	<polygon fill="#FBECF4" points="479.25,88.492 501.262,111.676 501.279,88.508 	"/>
	<polygon fill="#F7D6E7" points="257.442,88.326 234.295,67.141 234.279,88.308 	"/>
	<polygon fill="#FBECF4" points="234.262,111.477 257.36,88.326 234.279,88.308 	"/>
	<polygon fill="#FEF8FB" points="501.692,66.508 523.278,89.692 523.296,66.524 	"/>
	<polygon fill="#FEFBFD" points="523.312,45.356 501.775,66.508 523.296,66.524 	"/>
	<polygon fill="#FBECF4" points="279.885,66.343 257.311,45.158 257.295,66.325 	"/>
	<polygon fill="#F7D6E7" points="235.133,66.309 257.278,89.494 257.295,66.325 	"/>
	<polygon fill="#FBECF4" points="257.311,45.158 235.217,66.309 257.295,66.325 	"/>
	<polygon fill="#FEF8FB" points="502.017,66.509 479.312,45.323 479.296,66.492 	"/>
	<polygon fill="#FEF8FB" points="479.278,89.66 501.935,66.508 479.296,66.492 	"/>
	<polygon fill="#FBECF4" points="279.561,66.342 301.278,89.526 301.295,66.358 	"/>
	<polygon fill="#FBECF4" points="523.278,89.356 501.743,110.508 523.263,110.524 	"/>
	<polygon fill="#FBECF4" points="279.852,110.342 257.279,89.158 257.263,110.326 	"/>
	<polygon fill="#F1B6D6" points="257.279,89.158 235.185,110.309 257.263,110.326 	"/>
	<polygon fill="#FBECF4" points="501.983,110.508 479.278,89.323 479.263,110.492 	"/>
	<polygon fill="#FBECF4" points="301.278,89.191 279.611,110.343 301.263,110.358 	"/>
</g>
<g id="Layer_3">
</g>
</svg>
