<?xml version="1.0" encoding="utf-8"?>
<!-- Generator: Adobe Illustrator 16.0.0, SVG Export Plug-In . SVG Version: 6.00 Build 0)  -->
<!DOCTYPE svg PUBLIC "-//W3C//DTD SVG 1.1//EN" "http://www.w3.org/Graphics/SVG/1.1/DTD/svg11.dtd">
<svg version="1.1" id="Layer_1" xmlns="http://www.w3.org/2000/svg" xmlns:xlink="http://www.w3.org/1999/xlink" x="0px" y="0px"
	 width="595.279px" height="595.281px" viewBox="0 0 595.279 595.281" enable-background="new 0 0 595.279 595.281"
	 xml:space="preserve">
<circle fill="#7CF2DB" cx="297.639" cy="297.64" r="297.64"/>
<defs>
	<filter id="Adobe_OpacityMaskFilter" filterUnits="userSpaceOnUse" x="178.18" y="205.885" width="565.17" height="491.08">
		<feColorMatrix  type="matrix" values="1 0 0 0 0  0 1 0 0 0  0 0 1 0 0  0 0 0 1 0"/>
	</filter>
</defs>
<mask maskUnits="userSpaceOnUse" x="178.18" y="205.885" width="565.17" height="491.08" id="SVGID_1_">
	<g filter="url(#Adobe_OpacityMaskFilter)">
		<circle fill="#7CF2DB" cx="297.639" cy="297.64" r="297.64"/>
	</g>
</mask>
<polygon mask="url(#SVGID_1_)" fill="#6ED3C0" points="178.18,227.822 255.263,304.905 182.518,291.108 235.2,343.79 
	178.18,344.274 241.879,407.972 178.18,407.972 467.173,696.965 743.35,525.549 423.687,205.885 "/>
<g>
	<path fill="#FFFFFF" d="M423.687,205.885c0,3.359,0,6.719,0,10.079c-4.112,9.557-9.753,18.023-18.677,23.658
		c-6.436,4.065-13.031,8.068-20.002,11.057c-22.345,9.578-45.944,13.93-70.112,15.153c-33.784,1.71-67.087-0.814-99.061-12.945
		c-14.416-5.47-28.068-12.338-37.655-25.064c-8.542-11.34-8.795-23.441,0.144-34.446c4.5-5.541,10.121-10.515,16.09-14.45
		c16.934-11.165,36.19-16.401,55.904-20.087c8.498-1.588,17.031-2.984,25.548-4.468c12.318,0,24.637,0,36.956,0
		c1.723,0.374,3.43,0.973,5.17,1.089c22.802,1.531,45.079,5.579,66.174,14.619C401.358,177.447,417.138,186.642,423.687,205.885z"/>
	<path fill-rule="evenodd" clip-rule="evenodd" fill="#FFFFFF" d="M421.673,235.258c0.302,4.732,0.759,9.458,0.873,14.195
		c0.197,8.296,0.184,16.597,0.259,24.896c-2.675,10.598-9.871,17.782-18.358,23.842c-16.443,11.738-35.32,17.539-54.817,21.302
		c-43.78,8.448-87.134,7.076-129.74-6.972c-11.938-3.936-23.179-9.291-32.954-17.368c-10.019-8.279-16.009-18.334-15.285-31.938
		c0.513-9.637,0.1-19.323,0.1-30.364c2.913,4.65,4.82,8.384,7.363,11.62c7.205,9.168,16.849,15.182,27.319,19.882
		c30.028,13.482,61.784,17.564,94.37,17.265c30.886-0.283,60.981-4.583,89.185-17.849
		C403.279,257.516,415.513,249.648,421.673,235.258z"/>
	<path fill-rule="evenodd" clip-rule="evenodd" fill="#FFFFFF" d="M422.571,292.901c0.088,13.23,0.178,26.46,0.267,39.69
		c-2.062,8.81-7.634,15.266-14.382,20.759c-15.608,12.705-34.138,19.005-53.408,23.147c-45.942,9.876-91.519,8.913-136.337-6.174
		c-13.344-4.492-25.802-10.833-36.02-20.872c-7.103-6.979-11.149-15.15-10.845-25.418c0.312-10.547,0.069-21.11,0.069-32.926
		c13.243,25.36,36.341,34.259,60.569,40.553c47.862,12.434,95.612,11.543,142.851-3.704c5.13-1.656,10.158-3.749,15.027-6.071
		C403.927,315.418,415.547,306.684,422.571,292.901z"/>
	<path fill-rule="evenodd" clip-rule="evenodd" fill="#FFFFFF" d="M422.567,351.03c0.077,13.26,0.151,26.521,0.228,39.781
		c-2.117,8.788-7.654,15.248-14.45,20.721c-15.648,12.601-34.031,19.29-53.362,23.199c-45.525,9.209-90.77,8.805-135.298-5.851
		c-12.304-4.05-23.777-9.815-33.751-18.254c-9.318-7.884-14.783-17.457-14.259-30.147c0.411-9.947,0.083-19.927,0.508-30.01
		c12.023,23.227,33.84,32.005,56.662,38.32c49.006,13.563,98.004,12.936,146.587-2.662c4.424-1.419,8.714-3.307,12.963-5.207
		C402.83,374.462,415.293,365.697,422.567,351.03z"/>
</g>
</svg>
