<?xml version="1.0" encoding="utf-8"?>
<!-- Generator: Adobe Illustrator 16.0.0, SVG Export Plug-In . SVG Version: 6.00 Build 0)  -->
<!DOCTYPE svg PUBLIC "-//W3C//DTD SVG 1.1//EN" "http://www.w3.org/Graphics/SVG/1.1/DTD/svg11.dtd">
<svg version="1.1" id="Layer_1" xmlns="http://www.w3.org/2000/svg" xmlns:xlink="http://www.w3.org/1999/xlink" x="0px" y="0px"
	 width="595.279px" height="595.281px" viewBox="0 0 595.279 595.281" enable-background="new 0 0 595.279 595.281"
	 xml:space="preserve">
<circle fill="#F16529" cx="297.639" cy="297.64" r="297.64"/>
<defs>
	<filter id="Adobe_OpacityMaskFilter" filterUnits="userSpaceOnUse" x="93.167" y="176.478" width="608.899" height="569.854">
		<feColorMatrix  type="matrix" values="1 0 0 0 0  0 1 0 0 0  0 0 1 0 0  0 0 0 1 0"/>
	</filter>
</defs>
<mask maskUnits="userSpaceOnUse" x="93.167" y="176.478" width="608.899" height="569.854" id="SVGID_1_">
	<g filter="url(#Adobe_OpacityMaskFilter)">
		<circle fill="#F16529" cx="297.639" cy="297.64" r="297.64"/>
	</g>
</mask>
<polygon mask="url(#SVGID_1_)" fill="#E44D26" points="702.066,496.214 503.492,297.64 493.976,308.825 361.629,176.478 
	301.14,309.139 216.335,224.335 105.139,314.14 93.167,320.552 518.948,746.332 "/>
<path fill="#FFFFFF" d="M195.699,214.74h-0.001c-6.065,0-11.737,2.121-16.409,6.134l-80.076,66.73
	c-6.082,5.021-9.295,11.955-9.295,20.057c0,8.107,3.214,15.042,9.297,20.057l80.072,66.727c4.669,4.017,10.337,6.139,16.399,6.139
	c0.906,0,1.835-0.047,2.76-0.14c6.949-0.694,13.029-3.833,17.577-9.078l0.159-0.183l0.15-0.191c3.855-4.908,5.81-10.47,5.81-16.531
	c0-7.871-3.323-14.801-9.611-20.04l-0.03-0.024l-0.03-0.024c-8.559-7.021-16.925-14.048-24.866-20.888l-0.05-0.043l-0.051-0.043
	c-6.751-5.66-14.025-11.693-21.619-17.933c-3.357-2.754-6.463-5.324-9.3-7.695c2.892-2.399,6.02-5.004,9.365-7.8
	c7.462-6.235,14.648-12.251,21.558-18.048l0.048-0.041l0.048-0.042c7.931-6.826,16.299-13.855,24.871-20.892l0.029-0.023
	l0.028-0.024c6.287-5.239,9.61-12.169,9.61-20.041c0-6.053-1.953-11.613-5.806-16.525l-0.152-0.194l-0.162-0.186
	c-4.541-5.236-10.618-8.375-17.574-9.076C197.518,214.786,196.597,214.74,195.699,214.74L195.699,214.74z"/>
<path fill="#FFFFFF" d="M337.734,161.337L337.734,161.337c-3.74,0-7.427,0.844-10.958,2.509c-6.367,3.01-11.022,8.119-13.472,14.779
	l-80.173,220.475c-2.48,6.72-2.173,13.644,0.904,19.979c3.003,6.188,8.094,10.752,14.72,13.195c3.015,1.109,6.069,1.671,9.085,1.671
	c3.75,0,7.426-0.86,10.925-2.556c6.202-3.018,10.763-8.106,13.205-14.723l80.071-220.196c2.803-6.561,2.661-13.465-0.414-19.992
	c-3.005-6.357-8.109-11.011-14.769-13.469C343.836,161.898,340.77,161.337,337.734,161.337L337.734,161.337z"/>
<path fill="#FFFFFF" d="M399.379,214.74c-0.899,0-1.817,0.047-2.729,0.14c-6.856,0.709-12.869,3.849-17.398,9.082l-0.154,0.179
	l-0.146,0.186c-3.856,4.907-5.812,10.469-5.812,16.534c0,7.764,3.135,14.632,9.064,19.86l0.132,0.116l0.137,0.112
	c8.493,6.972,17.009,14.031,25.31,20.98l0.055,0.046l0.056,0.045c6.988,5.682,14.164,11.689,21.328,17.856
	c3.297,2.843,6.405,5.479,9.308,7.895L407.8,333.378c-8.339,6.985-16.852,14.043-25.324,20.993l-0.138,0.112l-0.133,0.117
	c-5.931,5.228-9.065,12.095-9.065,19.859c0,6.072,1.957,11.638,5.816,16.54l0.144,0.183l0.152,0.176
	c4.536,5.241,10.553,8.382,17.397,9.083c0.91,0.094,1.835,0.142,2.741,0.142c6.006,0,11.537-2.02,16.44-6.004l0.048-0.039
	l0.048-0.039l80.138-66.782c6.083-5.019,9.298-11.954,9.298-20.058c0-8.093-3.211-15.025-9.286-20.049l-80.149-66.792l-0.052-0.042
	l-0.051-0.042C410.919,216.757,405.385,214.74,399.379,214.74L399.379,214.74z"/>
</svg>
