<?xml version="1.0" encoding="utf-8"?>
<!-- Generator: Adobe Illustrator 16.0.0, SVG Export Plug-In . SVG Version: 6.00 Build 0)  -->
<!DOCTYPE svg PUBLIC "-//W3C//DTD SVG 1.1//EN" "http://www.w3.org/Graphics/SVG/1.1/DTD/svg11.dtd">
<svg version="1.1" id="Layer_1" xmlns="http://www.w3.org/2000/svg" xmlns:xlink="http://www.w3.org/1999/xlink" x="0px" y="0px"
	 width="595.279px" height="595.281px" viewBox="0 0 595.279 595.281" enable-background="new 0 0 595.279 595.281"
	 xml:space="preserve">
<circle fill="#FFDA3E" cx="297.639" cy="297.64" r="297.64"/>
<defs>
	<filter id="Adobe_OpacityMaskFilter" filterUnits="userSpaceOnUse" x="135.598" y="183.783" width="626.655" height="538.912">
		<feColorMatrix  type="matrix" values="1 0 0 0 0  0 1 0 0 0  0 0 1 0 0  0 0 0 1 0"/>
	</filter>
</defs>
<mask maskUnits="userSpaceOnUse" x="135.598" y="183.783" width="626.655" height="538.912" id="SVGID_1_">
	<g filter="url(#Adobe_OpacityMaskFilter)">
		<circle fill="#FFDA3E" cx="297.639" cy="297.64" r="297.64"/>
	</g>
</mask>
<polygon mask="url(#SVGID_1_)" fill="#D5BA31" points="762.254,518.026 456.428,212.201 400.139,198.14 329.139,212.201 
	334.706,264.574 253.914,183.783 227.139,370.14 145.139,381.14 135.598,380.708 477.585,722.695 "/>
<g>
	<path fill="#FFFFFF" d="M259.846,203.558v112.5c0,9.767-0.417,18.068-1.245,24.902c-0.831,6.837-2.71,13.77-5.64,20.801
		c-4.884,11.817-12.941,21.021-24.17,27.612c-11.231,6.592-24.902,9.888-41.016,9.888c-14.552,0-26.686-2.296-36.401-6.885
		c-9.718-4.589-17.555-12.012-23.511-22.266c-3.126-5.468-5.665-11.767-7.617-18.896c-1.955-7.127-2.93-13.916-2.93-20.361
		c0-6.834,1.904-12.06,5.713-15.674c3.809-3.611,8.69-5.42,14.648-5.42c5.761,0,10.107,1.662,13.037,4.98
		c2.93,3.321,5.175,8.496,6.738,15.527c1.659,7.521,3.319,13.527,4.98,18.018c1.659,4.493,4.442,8.35,8.35,11.572
		c3.905,3.223,9.471,4.834,16.699,4.834c19.237,0,28.857-14.11,28.857-42.334V203.558c0-8.789,1.927-15.381,5.786-19.775
		c3.856-4.395,9.105-6.592,15.747-6.592c6.738,0,12.085,2.197,16.04,6.592S259.846,194.769,259.846,203.558z"/>
	<path fill="#FFFFFF" d="M470.198,331.146c0,12.989-3.347,24.66-10.034,35.01c-6.69,10.353-16.479,18.457-29.37,24.316
		s-28.176,8.789-45.85,8.789c-21.192,0-38.672-4.003-52.441-12.012c-9.767-5.761-17.701-13.451-23.804-23.071
		c-6.104-9.618-9.155-18.97-9.155-28.052c0-5.273,1.831-9.789,5.493-13.55c3.662-3.759,8.324-5.64,13.989-5.64
		c4.589,0,8.471,1.465,11.646,4.395c3.173,2.93,5.882,7.276,8.13,13.037c2.732,6.837,5.688,12.55,8.862,17.139
		c3.173,4.592,7.64,8.375,13.403,11.353c5.761,2.979,13.33,4.468,22.705,4.468c12.891,0,23.364-3.003,31.421-9.009
		s12.085-13.499,12.085-22.485c0-7.127-2.175-12.914-6.519-17.358c-4.347-4.442-9.961-7.837-16.846-10.181
		s-16.091-4.834-27.612-7.471c-15.432-3.612-28.345-7.837-38.745-12.671s-18.653-11.426-24.756-19.775
		c-6.104-8.35-9.155-18.725-9.155-31.128c0-11.815,3.223-22.313,9.668-31.494c6.445-9.178,15.77-16.234,27.979-21.167
		c12.206-4.93,26.562-7.397,43.066-7.397c13.184,0,24.584,1.637,34.204,4.907c9.617,3.273,17.601,7.617,23.95,13.037
		c6.347,5.42,10.986,11.11,13.916,17.065c2.93,5.958,4.395,11.769,4.395,17.432c0,5.177-1.831,9.84-5.493,13.989
		c-3.662,4.152-8.229,6.226-13.696,6.226c-4.98,0-8.767-1.245-11.353-3.735c-2.589-2.49-5.397-6.566-8.423-12.231
		c-3.907-8.104-8.595-14.429-14.062-18.97c-5.471-4.541-14.26-6.812-26.367-6.812c-11.231,0-20.288,2.467-27.173,7.397
		c-6.885,4.933-10.327,10.865-10.327,17.798c0,4.298,1.172,8.009,3.516,11.133c2.344,3.126,5.566,5.812,9.668,8.057
		c4.102,2.248,8.251,4.005,12.451,5.273c4.197,1.271,11.133,3.126,20.801,5.566c12.107,2.833,23.071,5.958,32.886,9.375
		c9.814,3.419,18.164,7.569,25.049,12.451c6.885,4.884,12.254,11.06,16.113,18.53C468.268,311.151,470.198,320.306,470.198,331.146z
		"/>
</g>
</svg>
