<?xml version="1.0" encoding="utf-8"?>
<!-- Generator: Adobe Illustrator 16.0.0, SVG Export Plug-In . SVG Version: 6.00 Build 0)  -->
<!DOCTYPE svg PUBLIC "-//W3C//DTD SVG 1.1//EN" "http://www.w3.org/Graphics/SVG/1.1/DTD/svg11.dtd">
<svg version="1.1" id="Layer_1" xmlns="http://www.w3.org/2000/svg" xmlns:xlink="http://www.w3.org/1999/xlink" x="0px" y="0px"
	 width="595.279px" height="595.281px" viewBox="0 0 595.279 595.281" enable-background="new 0 0 595.279 595.281"
	 xml:space="preserve">
<circle fill="#387EEF" cx="297.639" cy="297.64" r="297.64"/>
<defs>
	<filter id="Adobe_OpacityMaskFilter" filterUnits="userSpaceOnUse" x="161.267" y="161.032" width="556.636" height="511.756">
		<feColorMatrix  type="matrix" values="1 0 0 0 0  0 1 0 0 0  0 0 1 0 0  0 0 0 1 0"/>
	</filter>
</defs>
<mask maskUnits="userSpaceOnUse" x="161.267" y="161.032" width="556.636" height="511.756" id="SVGID_1_">
	<g filter="url(#Adobe_OpacityMaskFilter)">
		<circle fill="#387EEF" cx="297.639" cy="297.64" r="297.64"/>
	</g>
</mask>
<polygon mask="url(#SVGID_1_)" fill-rule="evenodd" clip-rule="evenodd" fill="#2E68BC" points="229.045,215.823 285.506,272.283 
	182.139,312.14 161.267,371.564 243.56,453.857 462.491,672.789 717.903,508.377 435.406,225.879 427.733,229.547 359.219,161.032 
	248.139,161.032 234.639,186.64 "/>
<g>
	<path fill-rule="evenodd" clip-rule="evenodd" fill="#FFFFFF" d="M310.723,139.666c5.8,2.75,12.239,2.335,18.336,3.653
		c12.066,2.608,22.517,7.727,30.16,17.713c4.628,6.046,7.218,12.749,7.193,20.542c-0.078,25.113,0.178,50.228,0.064,75.34
		c-0.072,16.238-16.098,32.876-32.381,33.36c-23.246,0.692-46.528,1.709-69.756,1.1c-28.33-0.745-50.548,26.241-48.874,49.03
		c0.842,11.459-0.263,23.048,0.01,34.566c0.116,4.888-1.679,5.884-6.095,5.624c-7.185-0.419-14.405-0.406-21.607-0.326
		c-19.604,0.216-32.211-9.654-38.967-27.397c-9.704-25.481-11.074-51.663-5.463-78.26c2.179-10.33,5.183-20.382,12.094-28.688
		c8.284-9.954,18.791-15.845,31.921-16.354c36.83-1.43,73.681-0.702,110.521-0.753c6.285-0.009,6.155-2.737,6.36-7.31
		c0.232-5.171-1.47-6.573-6.569-6.509c-21.405,0.271-42.816,0.011-64.223,0.202c-4.189,0.037-5.792-0.908-5.548-5.419
		c0.623-11.501,0.899-23.028,1.077-34.548c0.216-13.989,7.685-22.547,20.157-27.329c11.241-4.31,23.13-5.557,34.978-6.939
		c1.501-0.175,3.385,0.68,4.376-1.299C295.902,139.666,303.312,139.666,310.723,139.666z M259.683,170.402
		c-7.714-0.152-13.713,5.525-14.046,13.292c-0.318,7.458,5.741,13.892,13.331,14.152c8.092,0.277,14.56-5.626,14.667-13.386
		C273.745,176.48,267.873,170.565,259.683,170.402z"/>
	<path fill-rule="evenodd" clip-rule="evenodd" fill="#FFFFFF" d="M455.232,308.879c-3.376,6.436-3.113,13.76-5.008,20.569
		c-5.352,19.242-16.912,32.062-36.782,36.748c-2.662,0.627-5.276,0.75-7.943,0.75c-36.229,0.009-72.457,0.164-108.683-0.151
		c-6.008-0.052-5.997,2.671-5.877,7c0.116,4.239-0.634,7.725,6.015,7.581c21.397-0.464,42.813-0.019,64.217-0.286
		c4.983-0.062,6.332,1.454,6.077,6.283c-0.583,11.093-0.562,22.218-0.944,33.322c-0.478,13.909-6.817,23.18-19.931,27.422
		c-27.621,8.937-55.808,9.537-84.065,3.644c-10.692-2.23-19.867-7.843-26.559-16.83c-4.286-5.756-6.735-12.129-6.703-19.46
		c0.11-25.316-0.079-50.634,0.175-75.949c0.174-17.374,16.244-33.748,33.596-34.192c23.659-0.608,47.329-0.793,70.994-1.12
		c24.015-0.331,45.184-20.986,45.889-45.188c0.366-12.547,0.325-25.114,0.087-37.665c-0.08-4.328,1.186-5.704,5.521-5.517
		c8.427,0.364,16.875,0.235,25.313,0.261c14.04,0.042,24.292,6.616,31.537,18.304c7.22,11.646,9.392,24.875,11.765,38.032
		c0.202,1.124-0.29,2.556,1.31,3.094c0,0.411,0,0.824,0,1.235c-1.184,9.881-1.191,19.762,0,29.643
		C455.232,307.232,455.232,308.054,455.232,308.879z M349.18,411.864c-0.017-7.888-6.28-14.12-14.01-13.938
		c-7.142,0.167-13.504,6.902-13.46,14.248c0.043,7.324,6.423,13.744,13.804,13.892C343.275,426.22,349.2,420.064,349.18,411.864z"/>
</g>
</svg>
