<?xml version="1.0" encoding="utf-8"?>
<!-- Generator: Adobe Illustrator 16.0.0, SVG Export Plug-In . SVG Version: 6.00 Build 0)  -->
<!DOCTYPE svg PUBLIC "-//W3C//DTD SVG 1.1//EN" "http://www.w3.org/Graphics/SVG/1.1/DTD/svg11.dtd">
<svg version="1.1" id="Layer_1" xmlns="http://www.w3.org/2000/svg" xmlns:xlink="http://www.w3.org/1999/xlink" x="0px" y="0px"
	 width="595.279px" height="595.281px" viewBox="0 0 595.279 595.281" enable-background="new 0 0 595.279 595.281"
	 xml:space="preserve">
<circle fill="#F05336" cx="297.639" cy="297.64" r="297.64"/>
<defs>
	<filter id="Adobe_OpacityMaskFilter" filterUnits="userSpaceOnUse" x="103.139" y="177.297" width="672.211" height="573.464">
		<feColorMatrix  type="matrix" values="1 0 0 0 0  0 1 0 0 0  0 0 1 0 0  0 0 0 1 0"/>
	</filter>
</defs>
<mask maskUnits="userSpaceOnUse" x="103.139" y="177.297" width="672.211" height="573.464" id="SVGID_1_">
	<g filter="url(#Adobe_OpacityMaskFilter)">
		<circle fill="#F05336" cx="297.639" cy="297.64" r="297.64"/>
	</g>
</mask>
<polygon mask="url(#SVGID_1_)" fill="#D34431" points="746.56,488.719 435.139,177.297 168.139,187.14 103.139,281.14 
	288.988,493.227 546.519,750.76 775.35,521.929 "/>
<path fill="#FFFFFF" d="M299.584,177.422c42.427,0,84.855,0.111,127.282-0.125c6.253-0.033,10.163,1.707,13.71,7.14
	c19.719,30.2,39.742,60.203,59.98,90.059c3.424,5.049,3.051,8.09-1.059,12.464C434.06,356.627,368.747,426.411,303.57,496.323
	c-4.399,4.721-6.954,4.983-11.506,0.164c-65.45-69.321-131.048-138.504-196.739-207.599c-3.536-3.72-3.881-6.345-0.967-10.61
	c21.58-31.594,43.002-63.298,64.273-95.102c2.936-4.392,6.31-5.897,11.474-5.878c43.158,0.167,86.317,0.097,129.477,0.097
	C299.584,177.405,299.584,177.413,299.584,177.422z M368.527,289.679c-46.851,0-92.312,0-138.903,0
	c23.083,52.471,45.909,104.357,69.452,157.875C322.573,394.141,345.268,342.552,368.527,289.679z M126.1,289.303
	c48.383,50.878,95.274,100.188,142.922,150.294c0-1.92,0.145-2.423-0.021-2.784c-21.729-47.868-43.45-95.74-65.354-143.53
	c-0.8-1.745-3.375-3.792-5.144-3.812C175.142,289.218,151.778,289.303,126.1,289.303z M329.067,437.234
	c0.353,0.339,0.701,0.677,1.053,1.014c45.146-49.19,90.29-98.383,136.692-148.945c-23.75,0-45.367-0.111-66.982,0.192
	c-1.906,0.027-4.646,2.378-5.534,4.319C372.433,341.566,350.767,389.408,329.067,437.234z M300.624,201.771
	c-19.913,20.805-39.114,40.865-58.847,61.479c39.634,0,77.906,0,117.726,0C339.455,242.317,320.471,222.494,300.624,201.771z
	 M215.744,258.09c20.579-21.517,40.186-42.014,60.176-62.915c-29.702,0-58.42,0-87.873,0
	C197.373,216.359,206.276,236.585,215.744,258.09z M410.187,194.915c-28.859,0-56.398,0-85.115,0
	c19.791,20.682,38.738,40.48,58.321,60.944C392.45,235.262,401.115,215.554,410.187,194.915z M407.674,263.344
	c20.265,0,39.485,0,59.991,0c-12.271-18.408-23.894-35.842-36.185-54.278C423.28,227.762,415.628,245.207,407.674,263.344z
	 M167.27,210.422c-12.293,18.22-23.757,35.207-35.837,53.11c20.287,0,39.125,0,59.097,0
	C182.817,245.92,175.373,228.921,167.27,210.422z"/>
</svg>
